<?xml version="1.0" encoding="utf-8" ?>
<svg xmlns="http://www.w3.org/2000/svg" xmlns:xlink="http://www.w3.org/1999/xlink" width="1024" height="1024">
	<path fill="white" d="M0 0L1024 0L1024 1024L0 1024L0 0Z"/>
	<path d="M192.884 53.5736Q194.576 53.748 196.222 54.179C207.638 57.1026 225.175 68.9222 235.194 75.4988C302.99 119.999 359.769 183.255 400.097 253.417C409.181 250.389 419.004 248.719 428.355 246.674C492.042 232.745 562.11 230.427 626.409 242.073Q645.044 245.572 663.254 250.855C669.64 252.696 675.89 254.969 682.325 256.639C694.974 239.133 707.692 221.608 721.513 204.994C758.574 160.445 804.767 117.978 854.702 88.2198C866.788 81.017 883.433 71.3466 896.922 67.7278C898.738 68.1572 900.526 68.6187 902.207 69.4509C913.413 74.9996 921.471 99.3522 924.955 111.244C940.875 165.58 938.908 236.637 929.567 292.367C926.736 309.258 922.745 325.873 918.404 342.43C916.323 350.367 913.887 358.132 911.25 365.9C907.001 378.421 901.895 390.635 902.405 404.104C903.095 422.311 918.361 456.034 925.492 474.236C932.706 492.65 939.983 510.942 946.089 529.766Q949.959 530.624 953.777 531.692C961.908 534.002 986.27 541.979 989.981 548.662L989.551 549.292C988.193 549.459 987.184 549.197 985.905 548.795C981.119 547.292 976.408 544.95 971.733 543.095Q960.134 538.387 947.923 535.634C950.511 545.122 953.644 554.436 956.053 563.983C963.721 594.373 969.117 629.005 964.334 660.275C974.077 669.742 985.173 678.713 992.973 689.947C994.126 691.607 995.598 693.765 995.208 695.832L994.256 695.958C992.68 695.228 991.493 694.392 990.199 693.228C986.552 689.947 983.435 685.837 980.023 682.283C974.832 676.877 969.309 671.82 963.756 666.792C963.226 671.635 961.971 676.601 961.012 681.396C953.022 721.323 933.972 755.581 907.887 786.395Q900.051 795.831 891.348 804.474Q882.646 813.117 873.156 820.888Q865.602 826.884 857.788 832.535Q849.973 838.187 841.913 843.483Q833.854 848.779 825.565 853.709Q817.276 858.64 808.775 863.194Q800.274 867.748 791.578 871.917Q782.882 876.087 774.008 879.863Q765.134 883.639 756.099 887.014Q747.065 890.389 737.889 893.356Q723.776 897.972 709.5 902.054C697.72 905.301 685.938 908.101 674.501 912.493C658.748 918.543 644.328 927.414 629.066 934.544C588.859 953.331 545.995 965.616 501.503 966.908C431.235 968.949 365.343 946.515 309.514 903.893C300.875 897.297 292.337 890.672 284.307 883.334C277.846 877.429 271.634 870.168 264.444 865.199C260.683 862.6 256.227 860.675 252.213 858.471C247.16 855.697 242.242 852.635 237.358 849.576C213.897 834.884 190.515 817.611 170.402 798.561C120.368 751.173 78.2951 688.417 76.3407 617.368C69.4282 620.599 62.4813 623.933 55.8201 627.656C51.0839 630.303 27.2349 645.993 24.5222 645.95C24.2059 645.444 23.8252 645.174 24.0022 644.542C25.932 637.65 68.2343 614.989 75.6737 610.828C76.1586 575.214 79.7115 544.865 95.4107 512.388C72.6483 512.554 49.9433 519.667 27.9838 524.949C46.7047 511.663 75.7894 507.73 98.3458 505.99C108.751 487.971 119.806 470.111 132.71 453.741C148.413 433.82 170.39 417.818 179.104 393.214C180.442 389.439 182.25 383.883 181.755 379.866C181.337 376.471 179.601 372.569 178.518 369.281C175.907 361.352 173.071 353.43 170.886 345.373C163.473 318.032 157.626 289.439 154.61 261.245C148.577 204.848 151.177 147.499 168.974 93.3337C172.775 81.7635 181.37 59.4063 192.884 53.5736Z"/>
	<path fill="white" d="M194.992 65.2963C208.038 70.7418 220.191 78.7792 231.881 86.624Q240.982 92.7685 249.803 99.3097Q258.623 105.851 267.146 112.776Q275.668 119.701 283.876 126.996Q292.083 134.292 299.96 141.943Q307.837 149.595 315.367 157.587Q322.898 165.579 330.068 173.897Q337.237 182.215 344.031 190.842Q350.826 199.469 357.232 208.388C370.756 227.048 381.801 247.088 394.413 266.295C464.539 245.586 546.442 239.368 618.675 251.959C642.533 256.117 664.03 262.244 687.033 269.457Q708.205 238.27 732.265 209.254C766.404 168.704 813.567 125.635 859.01 98.4261Q877.532 87.4571 897.282 78.8936C909.216 92.1937 914.352 111.094 918.008 128.175C931.103 189.361 925.739 263.406 911.913 324.213C909.283 335.776 905.691 347.079 902.029 358.348C896.94 374.013 891.38 388.604 891.968 405.376C892.753 427.806 911.796 470.248 920.478 492.265C924.978 503.674 928.892 515.243 933.128 526.742C922.047 524.793 910.994 523.277 899.752 522.675C857.929 520.436 811.821 525.847 774.009 544.703C767.839 547.78 760.808 551.203 755.742 555.97C754.582 557.062 752.921 558.787 752.898 560.468C754.941 561.233 770.604 552.256 773.941 550.761Q782.962 546.707 792.269 543.366Q801.577 540.024 811.116 537.414C848.648 527.5 896.845 524.394 934.906 532.789C938.749 541.836 941.378 551.5 943.836 561.001C951.812 591.836 954.81 620.902 954.475 652.674Q948.406 647.882 942.109 643.394Q935.813 638.905 929.304 634.73Q922.796 630.556 916.09 626.704Q909.385 622.853 902.499 619.335Q895.613 615.817 888.563 612.64Q881.513 609.463 874.317 606.635Q867.12 603.807 859.793 601.335Q852.466 598.863 845.027 596.753C833.589 593.41 777.708 580.874 769.613 586.114C768.935 586.554 769.051 586.992 768.9 587.721C771.133 591.093 777.933 590.626 781.681 590.879C796.523 591.884 811.106 594.548 825.594 597.814C873.351 608.58 915.269 627.76 953.652 658.23C952.337 672.577 949.156 686.533 945.155 700.341C935.473 729.451 919.107 758.643 898.357 781.285C853.027 830.75 792.226 863.156 729.225 884.194Q716.938 888.337 704.491 891.973C692.318 895.404 680.11 898.341 668.31 902.981C653.336 908.868 639.545 916.938 625.019 923.744C586.949 941.583 545.861 954.136 503.65 955.926C435.444 958.819 369.563 935.997 315.447 894.907C306.296 887.959 297.55 880.888 289.044 873.167C283.218 867.878 277.704 861.752 271.323 857.151C264.257 852.056 255.735 848.775 248.336 844.097C224.944 829.307 202.318 813.201 181.943 794.405C128.679 745.269 89.6833 686.775 86.7566 612.509C93.6199 609.917 100.277 606.802 107.228 604.431Q116.795 601.252 126.545 598.685Q136.295 596.118 146.187 594.175Q156.08 592.231 166.076 590.917Q176.072 589.604 186.131 588.927Q197.351 588.175 208.595 588.336C214.051 588.382 220.185 589.144 225.522 588.185C226.481 587.45 227.054 586.976 227.317 585.691C227.558 584.514 226.937 584.047 226.245 583.249C220.776 581.667 213.084 582.527 207.291 582.533C167.018 582.575 123.448 589.974 86.5043 606.408C86.6147 572.855 91.8372 541.577 108.075 511.771Q118.414 511.541 128.742 512.053Q139.071 512.565 149.336 513.816Q159.602 515.067 169.751 517.051Q179.9 519.034 189.881 521.74C199.583 524.446 209.359 527.46 218.82 530.927C224.049 532.843 237.938 540.836 242.423 540.342C243.88 540.181 244.048 539.96 244.91 538.898C244.919 537.556 244.971 537.208 244.046 536.129C242.313 534.108 232.532 530.578 229.69 529.409C192.446 514.082 150.844 505.22 110.5 506.138C118.62 490.068 136.907 464.246 149.104 450.653C160.542 437.907 174.019 426.307 182.56 411.253C187.983 401.695 190.669 391.451 193.603 380.96C189.625 367.86 185.089 354.959 181.36 341.77Q176.973 325.891 173.601 309.765Q170.23 293.64 167.886 277.333C159.842 220.778 160.705 158.114 177.701 103.249C181.779 90.0845 186.656 76.4062 194.992 65.2963Z"/>
	<path d="M213.143 156.301C214.001 156.364 214.872 156.367 215.678 156.706C222.932 159.764 230.309 166.76 236.308 171.8C261.308 192.808 285.647 216.534 298.565 247.152C305.67 263.992 308.063 280.527 300.968 297.784C292.44 318.526 275.191 328.213 255.519 336.552C254.637 336.501 253.854 336.4 253.102 335.866C252.023 335.099 251.862 334.551 251.637 333.358C252.706 330.862 270.359 323.577 274.314 321.048C286.266 313.405 295.932 300.89 298.889 286.866C307.533 245.869 261.746 199.142 232.72 175.185C229.593 172.604 214.015 161.774 213.056 159.708C212.428 158.356 212.76 157.629 213.143 156.301Z"/>
	<path d="M871.805 164.815C873.584 166.213 874.755 167.97 876.069 169.785C870.927 174.621 865.114 179.001 859.732 183.603C838.155 202.054 815.709 221.707 801.847 246.899C793.448 262.163 787.871 280.914 793.012 298.129C798.045 314.982 810.5 327.923 825.825 336.011C830.207 338.324 835.352 339.722 839.524 342.225C840.698 342.929 841.166 343.384 841.487 344.696L840.454 345.824L839.709 345.699C822.593 342.77 806.317 332.449 796.377 318.214C786.878 304.611 782.832 288.98 785.823 272.572C792.482 236.041 825.644 204.191 852.712 180.825C858.918 175.468 865.077 169.495 871.805 164.815Z"/>
	<path d="M473.016 536.093C488.007 534.989 500.014 544.888 514.703 544.938C527.42 544.981 537.368 536.396 548.26 535.963C555.009 535.695 561.759 538.788 566.502 543.483C571.477 548.407 573.895 554.796 573.824 561.756C573.644 579.242 562.948 594.874 550.962 606.744C544.222 612.415 537.24 617.08 528.616 619.308C514.026 623.078 498.532 620.266 485.687 612.621C471.688 604.29 460.488 588.511 456.661 572.729C454.467 563.678 453.783 553.399 459.029 545.195C462.361 539.985 467.16 537.434 473.016 536.093Z"/>
	<path fill="white" d="M474.054 545.511C480.041 545.054 484.457 546.992 489.925 548.976C516.552 558.637 523.621 554.014 548.929 545.197C552.495 546.135 556.044 547.339 558.916 549.735C562.096 552.389 563.766 555.973 564.058 560.076C564.986 573.129 556.617 586.314 548.36 595.649C545.341 598.988 541.511 601.998 537.736 604.438C527.862 610.817 517.008 612.625 505.536 610.093C491.892 607.082 480.774 598.286 473.475 586.535C468.59 578.672 463.111 565.386 465.496 556.016C466.747 551.105 469.796 548.006 474.054 545.511Z"/>
	<path d="M374.46 362.568C374.992 362.518 375.524 362.462 376.058 362.447C387.473 362.128 408.907 376.906 417.012 384.613C435.343 402.044 452.244 429.383 452.735 455.373C452.859 461.937 452.995 466.821 448.092 471.778C431.405 488.65 399.543 494.18 376.844 494.509C358.075 494.531 339.315 491.94 322.18 483.883C314.872 480.447 300.67 473.314 298.019 465.008C294.64 454.418 303.938 429.123 308.695 419.485C312.532 411.711 317.403 404.75 322.874 398.054C337.161 380.565 353.069 369.748 374.46 362.568Z"/>
	<path fill="white" d="M375.004 372.55C375.651 372.473 375.97 372.415 376.581 372.401C385.252 372.193 405.578 386.891 411.739 392.876C430.672 411.271 442.715 436.555 443.203 463.006C423.853 479.671 400.276 484.054 375.375 484.721C349.808 485.111 327.5 478.602 307.475 462.705C307.366 451.237 310.113 439.823 314.829 429.412C327.064 402.404 347.26 382.867 375.004 372.55Z"/>
	<path d="M373.854 417.148C377.206 417.11 380.308 417.877 383.198 419.584C388.239 422.562 391.657 427.879 393.04 433.498Q393.184 434.069 393.298 434.647Q393.412 435.225 393.497 435.808Q393.581 436.391 393.636 436.978Q393.69 437.564 393.715 438.153Q393.739 438.741 393.734 439.33Q393.728 439.919 393.692 440.507Q393.656 441.095 393.591 441.681Q393.525 442.266 393.429 442.847Q393.333 443.429 393.208 444.004Q393.083 444.58 392.928 445.148Q392.773 445.717 392.59 446.276Q392.406 446.836 392.194 447.386Q391.982 447.935 391.742 448.473Q391.503 449.011 391.236 449.536Q390.969 450.062 390.675 450.572Q390.381 451.083 390.062 451.578C386.636 456.951 382.207 459.752 376.108 461.038C371.735 460.872 368.014 460.308 364.285 457.784C359.467 454.522 356.348 448.967 355.301 443.313C354.168 437.19 355.515 430.621 359.252 425.601C362.867 420.744 367.942 418.062 373.854 417.148Z"/>
	<path d="M671.053 362.553C671.278 362.524 671.502 362.482 671.728 362.465C681.923 361.708 707.236 379.053 714.544 385.68C732.728 402.17 750.016 427.698 751.094 452.929C751.386 459.748 749.721 465.558 744.985 470.616C728.18 488.568 695.138 493.927 671.663 494.818C648.925 494.965 627.415 490.361 607.399 479.359C601.849 476.309 593.313 472.47 591.589 465.905C587.714 451.145 594.306 431.429 601.492 418.642C616.667 391.641 640.998 370.932 671.053 362.553Z"/>
	<path fill="white" d="M670.454 373.511C670.943 373.397 670.927 373.38 671.522 373.36C680.602 373.043 703.815 389.152 710.366 395.231C725.601 409.369 740.33 432.983 740.824 454.387C740.923 458.654 739.717 461.734 736.721 464.825C722.918 479.07 691.364 483.978 672.134 484.477C651.614 484.495 632.274 481.74 613.994 471.812C609.227 469.224 604.644 466.464 600.724 462.683C599.705 450.7 603.164 438.486 608.245 427.735C620.715 401.349 643.34 383.258 670.454 373.511Z"/>
	<path d="M665.612 418.593C668.899 418.234 671.765 418.144 674.927 419.266C679.961 421.053 683.765 424.949 685.895 429.802C688.421 435.557 688.329 442.437 685.955 448.225C683.566 454.048 679.557 457.39 673.898 459.725C670.125 460.202 667.169 460.386 663.546 458.848C658.594 456.745 654.794 452.258 652.909 447.286C650.71 441.482 651.015 434.693 653.624 429.07C656.191 423.538 660.12 420.725 665.612 418.593Z"/>
	<path d="M287.182 579.942C287.406 579.931 287.629 579.911 287.853 579.909C289.646 579.888 290.843 580.124 292.078 581.501C292.936 582.457 293.523 583.867 293.325 585.154C292.814 588.473 287.62 591.088 285.269 593.146C284.278 594.014 282.989 595.335 283.089 596.764C283.478 602.343 305.479 619.255 310.53 623.023C318.964 629.312 327.536 635.652 336.539 641.104C404.248 682.111 488.139 696.658 566.067 685.313Q570.229 684.683 574.371 683.934Q578.514 683.185 582.633 682.316Q586.752 681.448 590.844 680.462Q594.936 679.475 598.998 678.371Q603.061 677.268 607.089 676.047Q611.118 674.827 615.11 673.491Q619.102 672.155 623.054 670.705Q627.006 669.255 630.914 667.692Q634.823 666.129 638.684 664.454Q642.546 662.779 646.358 660.993Q650.17 659.208 653.93 657.313Q657.689 655.418 661.392 653.417Q665.095 651.415 668.738 649.307Q672.382 647.199 675.964 644.988Q679.546 642.776 683.062 640.462Q686.578 638.148 690.027 635.734C701.561 627.722 713.11 618.835 721.55 607.518C717.502 602.145 712.659 596.507 709.602 590.52C709.511 589.532 709.443 588.833 709.906 587.905C710.593 586.528 712.2 585.159 713.771 585.017C715.188 584.888 716.17 585.615 717.192 586.482C724.875 593.005 741.512 620.679 741.994 629.747C742.074 631.245 741.668 632.575 740.46 633.541C739.618 634.214 738.323 634.522 737.266 634.328C732.689 633.485 729.604 622.598 727.495 618.77C723.451 630.281 719.911 641.961 715.723 653.421C708.431 673.376 699.303 693.549 688.438 711.811C685.637 716.643 682.631 721.391 679.681 726.136C653.475 768.275 618.887 804.622 575.351 828.911C560.594 837.143 545.539 843.82 528.996 847.63C481.912 858.472 437.645 848.019 397.161 822.666C325.32 777.674 293.001 682.639 275.087 604.289C272.353 608.857 266.413 625.742 263.449 627.915C262.414 628.674 261.343 629.03 260.053 628.86C258.779 628.692 257.484 628.079 256.72 627.016C255.522 625.349 255.805 623.084 256.293 621.225C260.237 606.21 273.715 587.796 287.182 579.942Z"/>
	<path fill="white" d="M440.496 754.164C450.886 752.926 461.668 754.881 471.211 759.074C475.945 761.154 480.572 763.636 485.451 765.35L485.995 765.536C495.51 763.222 503.073 758.618 513.269 758.471C527.622 758.263 542.223 764.294 552.403 774.394C565.068 786.959 569.48 802.773 569.55 820.072C554.666 828.003 539.887 834.707 523.34 838.404C517.673 839.681 511.774 840.533 506 841.103C465.873 845.07 422.239 831.392 391.015 805.909C392.671 795.662 395.764 786.225 401.923 777.76C411.334 764.825 424.696 756.581 440.496 754.164Z"/>
	<path fill="white" d="M289.222 619.262C296.447 624.643 303.174 630.696 310.553 635.871Q314.199 638.475 317.915 640.979Q321.63 643.483 325.411 645.886Q329.193 648.289 333.038 650.588Q336.884 652.888 340.79 655.083Q344.696 657.278 348.659 659.366Q352.623 661.455 356.642 663.435Q360.661 665.416 364.732 667.287Q368.803 669.158 372.923 670.918Q377.044 672.678 381.21 674.327Q385.376 675.975 389.585 677.51Q393.794 679.045 398.044 680.466Q402.293 681.886 406.579 683.192Q410.865 684.497 415.185 685.686Q419.505 686.875 423.855 687.946Q428.206 689.018 432.583 689.971Q436.961 690.925 441.363 691.76C517.405 706.541 597.838 699.28 666.641 662.284C683.044 653.464 697.312 642.081 712.663 631.731C697.461 672.439 677.985 712.666 651.431 747.28C632.103 771.948 606.202 798.616 579.125 814.739C579.145 807.208 578.049 799.951 575.534 792.834C569.845 776.739 557.203 762.509 541.724 755.225C522.165 746.022 505.382 748.492 485.797 755.539C479.444 752.087 473.203 749.114 466.209 747.192C448.214 742.247 430.329 743.969 414.092 753.376C395.9 763.917 387.771 779.592 382.437 799.195C375.446 792.313 368.263 785.543 361.948 778.023C324.185 733.053 303.054 675.632 289.222 619.262Z"/>
</svg>
