<?xml version="1.0" encoding="utf-8" ?>
<svg xmlns="http://www.w3.org/2000/svg" xmlns:xlink="http://www.w3.org/1999/xlink" width="1043" height="1043">
	<path fill="#FEE986" transform="matrix(1.01855 0 0 1.01855 6.10352e-05 0)" d="M0 0L956.477 0L1024 0L1024 1024L711.89 1024L687.516 1024L452.679 1024L344.964 1024L316.046 1024L0 1024L0 956.754L0 610.657L0 0Z"/>
	<path fill="#FA5B07" transform="matrix(1.01855 0 0 1.01855 6.10352e-05 0)" d="M322.417 123.985C322.59 123.932 322.763 123.881 322.935 123.827C331.084 121.243 338.899 116.917 346.868 113.755C363.543 107.14 380.93 101.556 398.263 96.9443C481.628 74.7622 574.754 76.7527 656.187 105.863C668.155 110.142 680.303 114.703 691.637 120.49C695.008 122.211 698.257 124.064 701.416 126.148C690.696 135.725 680.17 145.358 670.136 155.664C669.411 155.279 668.677 154.897 667.925 154.569C646.652 145.279 622.378 138.104 599.717 133.157C585.213 129.99 570.725 127.132 555.953 125.516C541.467 123.931 526.814 123.701 512.252 123.821C462.673 124.231 419.099 132.117 372.426 148.609C366.735 150.62 360.856 152.315 355.267 154.574C344.746 143.889 333.582 133.988 322.417 123.985Z"/>
	<path fill="#FA5B07" transform="matrix(1.01855 0 0 1.01855 6.10352e-05 0)" d="M110.439 631.044C141.157 730.608 202.154 813.78 290.828 869.459C299.051 874.622 307.295 880.088 315.877 884.619Q326.238 890.2 337.136 894.64C344.109 897.418 352.794 899.425 358.995 903.565C352.326 916.374 344.652 928.668 337.81 941.394Q334.438 940.013 331.089 938.578Q327.74 937.143 324.414 935.654Q321.088 934.165 317.787 932.623Q314.485 931.081 311.209 929.486Q307.933 927.891 304.683 926.244Q301.433 924.596 298.21 922.897Q294.987 921.197 291.791 919.446Q288.596 917.695 285.429 915.892Q282.263 914.09 279.125 912.237Q275.988 910.384 272.881 908.481Q269.773 906.577 266.697 904.624Q263.621 902.671 260.577 900.669Q257.533 898.666 254.521 896.615Q251.509 894.564 248.531 892.465Q245.553 890.366 242.608 888.219Q239.664 886.072 236.755 883.878Q233.846 881.684 230.972 879.444Q228.099 877.204 225.261 874.917Q222.424 872.631 219.624 870.299Q216.824 867.967 214.062 865.591Q211.3 863.214 208.577 860.794Q205.853 858.373 203.169 855.909Q200.484 853.445 197.84 850.938Q195.196 848.431 192.592 845.882Q189.989 843.333 187.427 840.742Q184.864 838.151 182.344 835.52Q179.824 832.888 177.346 830.216Q174.869 827.544 172.435 824.833Q170 822.122 167.61 819.371Q165.22 816.621 162.874 813.833Q160.528 811.045 158.227 808.219Q155.927 805.393 153.672 802.531Q149.024 796.702 144.571 790.722Q140.119 784.742 135.866 778.618Q131.613 772.494 127.566 766.233Q123.518 759.971 119.679 753.58Q115.841 747.188 112.216 740.673Q108.591 734.158 105.183 727.527Q101.775 720.896 98.5889 714.155Q95.4023 707.415 92.4404 700.573C88.801 692.045 85.0263 683.513 81.7962 674.822C79.7646 669.355 78.3646 663.285 75.7623 658.088C75.6985 657.961 75.6313 657.835 75.5658 657.709C85.6722 646.824 97.6719 638.478 110.439 631.044Z"/>
	<path fill="#FA5B07" transform="matrix(1.01855 0 0 1.01855 6.10352e-05 0)" d="M912.947 631.231C925.691 638.759 936.954 647.011 947.918 656.945C939.041 683.686 929.315 710.108 916.084 735.068C910.689 745.246 903.997 754.834 897.682 764.459Q895.618 767.641 893.503 770.789Q891.387 773.937 889.22 777.049Q887.052 780.161 884.834 783.237Q882.615 786.314 880.346 789.353Q878.078 792.392 875.759 795.393Q873.44 798.395 871.073 801.358Q868.705 804.32 866.288 807.244Q863.872 810.167 861.408 813.05Q858.943 815.933 856.432 818.775Q853.921 821.617 851.363 824.417Q848.805 827.218 846.201 829.975Q843.597 832.733 840.948 835.447Q838.299 838.161 835.606 840.832Q832.912 843.502 830.175 846.128Q827.438 848.753 824.659 851.333Q821.879 853.913 819.057 856.447Q816.234 858.981 813.371 861.468Q810.507 863.955 807.603 866.394Q804.699 868.833 801.755 871.225Q798.811 873.616 795.828 875.958Q792.845 878.3 789.824 880.593Q786.803 882.886 783.745 885.129Q780.686 887.371 777.591 889.563Q774.496 891.755 771.365 893.896Q768.234 896.036 765.068 898.125Q761.902 900.213 758.703 902.25Q755.503 904.286 752.27 906.269Q749.037 908.252 745.772 910.181Q742.507 912.111 739.21 913.986Q735.914 915.862 732.587 917.683Q729.26 919.504 725.903 921.269Q722.546 923.035 719.161 924.745C709.257 929.702 698.989 934.643 688.641 938.605C685.454 933.106 680.715 928.063 676.8 923.032C672.119 917.016 667.908 910.754 663.819 904.325C667.628 903.103 671.581 900.917 675.245 899.249Q692.8 891.21 709.861 882.169C722.501 875.476 734.447 867.815 746.261 859.764Q749.755 857.365 753.201 854.897Q756.647 852.429 760.043 849.893Q763.439 847.356 766.785 844.754Q770.13 842.151 773.423 839.482Q776.716 836.813 779.955 834.079Q783.194 831.346 786.379 828.548Q789.563 825.751 792.691 822.891Q795.819 820.031 798.89 817.109Q801.961 814.188 804.973 811.206Q807.986 808.224 810.938 805.183Q813.891 802.142 816.782 799.043Q819.674 795.943 822.503 792.787Q825.333 789.632 828.099 786.42Q830.865 783.209 833.567 779.943Q836.269 776.677 838.906 773.359Q841.543 770.04 844.113 766.669Q846.683 763.299 849.186 759.878Q851.689 756.458 854.123 752.988Q856.558 749.518 858.923 746.001Q861.288 742.483 863.583 738.92Q865.878 735.356 868.101 731.748Q870.325 728.139 872.477 724.487Q874.628 720.835 876.707 717.142Q878.786 713.448 880.791 709.713Q882.796 705.979 884.726 702.205Q886.657 698.432 888.512 694.621Q890.367 690.81 892.146 686.963Q893.925 683.116 895.628 679.234Q897.33 675.352 898.955 671.438Q900.581 667.523 902.128 663.577Q903.675 659.631 905.143 655.655Q906.612 651.678 908.001 647.674C909.9 642.253 911.261 636.711 912.947 631.231Z"/>
	<path fill="#FA5B07" transform="matrix(1.01855 0 0 1.01855 6.10352e-05 0)" d="M888.568 271.416C894.269 279.773 900.053 288.092 905.201 296.806Q907.081 300.042 908.907 303.31Q910.733 306.577 912.504 309.874Q914.275 313.171 915.991 316.497Q917.708 319.824 919.368 323.178Q921.029 326.532 922.634 329.913Q924.238 333.295 925.786 336.702Q927.335 340.11 928.826 343.543Q930.318 346.976 931.752 350.433Q933.186 353.89 934.562 357.37Q935.939 360.851 937.257 364.354Q938.576 367.857 939.836 371.381Q941.096 374.906 942.297 378.45Q943.498 381.995 944.64 385.559Q945.782 389.124 946.865 392.707Q947.948 396.289 948.971 399.89Q949.994 403.49 950.957 407.107Q951.92 410.724 952.823 414.356Q953.725 417.988 954.568 421.635Q955.41 425.282 956.191 428.942Q956.973 432.602 957.693 436.275Q958.414 439.948 959.073 443.632Q959.733 447.317 960.331 451.011Q960.929 454.706 961.466 458.41Q962.002 462.114 962.477 465.827Q962.952 469.539 963.365 473.259Q963.778 476.979 964.129 480.706Q964.481 484.432 964.77 488.164Q965.059 491.895 965.286 495.631Q965.513 499.367 965.679 503.106Q965.844 506.845 965.946 510.587Q966.049 514.328 966.09 518.071Q966.131 521.813 966.109 525.556C966.127 542.306 965.675 563.959 963.367 580.552C962.043 579.525 960.794 578.38 959.524 577.286C952.113 565.386 935.797 553.266 924.107 545.092C915.522 539.769 906.802 535.503 897.623 531.316C889.732 522.697 881.18 514.508 873.962 505.308C860.696 488.4 855.697 467.834 850.63 447.42C867.067 419.474 874.339 380.007 880.684 348.39C884.675 322.713 886.757 297.296 888.568 271.416Z"/>
	<path fill="#FEE986" transform="matrix(1.01855 0 0 1.01855 6.10352e-05 0)" d="M880.684 348.39C885.528 352.901 891.557 368.623 894.09 375.142C898.623 386.808 903.208 398.574 906.921 410.524Q910.673 422.95 913.621 435.59Q916.569 448.23 918.702 461.033Q920.835 473.836 922.145 486.75Q923.453 499.663 923.933 512.634C924.313 523.435 924.228 534.285 924.107 545.092C915.522 539.769 906.802 535.503 897.623 531.316C889.732 522.697 881.18 514.508 873.962 505.308C860.696 488.4 855.697 467.834 850.63 447.42C867.067 419.474 874.339 380.007 880.684 348.39Z"/>
	<path fill="#FEE986" transform="matrix(1.01855 0 0 1.01855 6.10352e-05 0)" d="M110.439 631.044C117.346 627.129 124.219 622.919 131.374 619.481C133.736 647.984 146.59 672.663 164.331 694.562C170.152 701.258 176.006 708.671 183.081 714.093C189.358 722.369 199.067 729.338 207.446 735.378C238.401 757.692 271.932 773.846 307.899 786.357C319.436 790.371 331.183 794.279 343.077 797.111C354.956 799.939 367.027 802.711 379.043 804.871C382.441 805.482 390.804 805.911 393.309 807.509C392.525 811.731 391.816 815.982 390.713 820.135Q386.575 838.965 380.148 857.141C374.147 873.198 367.417 888.607 358.995 903.565C352.794 899.425 344.109 897.418 337.136 894.64Q326.238 890.2 315.877 884.619C307.295 880.088 299.051 874.622 290.828 869.459C202.154 813.78 141.157 730.608 110.439 631.044Z"/>
	<path fill="#FEE986" transform="matrix(1.01855 0 0 1.01855 6.10352e-05 0)" d="M355.267 154.574C360.856 152.315 366.735 150.62 372.426 148.609C419.099 132.117 462.673 124.231 512.252 123.821C526.814 123.701 541.467 123.931 555.953 125.516C570.725 127.132 585.213 129.99 599.717 133.157C622.378 138.104 646.652 145.279 667.925 154.569C668.677 154.897 669.411 155.279 670.136 155.664C652.141 175.145 635.986 195.209 621.958 217.806C605.526 212.567 589.107 209.889 572.103 207.243C568.078 206.475 564.111 206.091 560.027 205.787C523.299 202.071 487.378 203.081 450.705 206.72C446.157 207.41 440.403 207.642 436.143 209.134C427.16 210.762 418.119 212.247 409.234 214.352Q383.431 183.397 355.267 154.574Z"/>
	<path fill="#FEE986" transform="matrix(1.01855 0 0 1.01855 6.10352e-05 0)" d="M862.777 687.283C878.512 668.519 888.812 645.984 897.009 623.135C902.424 625.689 907.696 628.352 912.947 631.231C911.261 636.711 909.9 642.253 908.001 647.674Q906.612 651.678 905.143 655.655Q903.675 659.631 902.128 663.577Q900.581 667.523 898.955 671.438Q897.33 675.352 895.628 679.234Q893.925 683.116 892.146 686.963Q890.367 690.81 888.512 694.621Q886.656 698.432 884.726 702.205Q882.796 705.979 880.791 709.713Q878.786 713.448 876.707 717.141Q874.628 720.835 872.477 724.487Q870.325 728.139 868.101 731.748Q865.878 735.356 863.583 738.92Q861.288 742.483 858.923 746.001Q856.558 749.518 854.123 752.988Q851.689 756.457 849.186 759.878Q846.683 763.299 844.113 766.669Q841.543 770.04 838.906 773.358Q836.269 776.677 833.567 779.943Q830.865 783.209 828.099 786.42Q825.333 789.631 822.503 792.787Q819.674 795.943 816.782 799.042Q813.891 802.142 810.938 805.183Q807.986 808.224 804.973 811.206Q801.961 814.188 798.89 817.109Q795.819 820.031 792.691 822.891Q789.563 825.751 786.379 828.548Q783.194 831.346 779.955 834.079Q776.716 836.813 773.423 839.482Q770.13 842.151 766.785 844.754Q763.439 847.356 760.043 849.893Q756.647 852.429 753.201 854.897Q749.755 857.365 746.261 859.764C734.447 867.815 722.501 875.476 709.861 882.169Q692.8 891.21 675.245 899.249C671.581 900.917 667.628 903.103 663.819 904.325Q661.54 900.728 659.411 897.04Q657.283 893.352 655.308 889.579Q653.334 885.806 651.517 881.955Q649.7 878.104 648.043 874.181Q646.386 870.258 644.893 866.271Q643.399 862.283 642.072 858.237Q640.744 854.191 639.585 850.093Q638.425 845.996 637.436 841.854Q635.339 830.047 634.227 818.108C634.015 814.044 634.071 809.938 634.017 805.867C629.469 806.408 624.903 807.111 620.315 806.891C625.696 804.975 631.537 803.777 637.062 802.275Q650.915 798.452 664.707 794.416Q683.972 788.754 702.775 781.708Q721.577 774.662 739.819 766.269C748.015 762.462 757.474 758.712 764.742 753.28Q771.11 750.448 777.331 747.306C785.584 743.17 828.29 720.636 830.262 714.692L829.111 714.274C831.864 713.302 836.463 713.899 839.455 713.92C847.92 707.043 856.132 695.998 862.777 687.283Z"/>
	<path fill="#B8D89B" transform="matrix(1.01855 0 0 1.01855 6.10352e-05 0)" d="M829.111 714.274C831.864 713.302 836.463 713.899 839.455 713.92C795.984 755.866 724.519 785.85 666.388 799.462C655.982 801.899 644.644 804.972 634.017 805.867C629.469 806.408 624.903 807.111 620.315 806.891C625.696 804.975 631.537 803.777 637.062 802.275Q650.915 798.452 664.707 794.416Q683.972 788.754 702.775 781.708Q721.577 774.662 739.819 766.269C748.015 762.462 757.474 758.712 764.742 753.28Q771.11 750.448 777.331 747.306C785.584 743.17 828.29 720.636 830.262 714.692L829.111 714.274Z"/>
	<path fill="#269082" transform="matrix(1.01855 0 0 1.01855 6.10352e-05 0)" d="M805.139 546.958C811.389 544.664 817.039 540.067 823.374 537.53C846.27 528.362 873.464 527.37 897.623 531.316C906.802 535.503 915.522 539.769 924.107 545.092C935.797 553.266 952.113 565.386 959.524 577.286C960.794 578.38 962.043 579.525 963.367 580.552C968.199 584.813 973.411 588.97 977.892 593.586L977.731 594.012C972.846 590.974 968.121 587.732 963.175 584.727C961.544 593.061 960.621 601.563 959.285 609.952Q956.976 623.633 953.849 637.151C952.656 642.346 951.55 648.428 949.191 653.198C949.322 653.466 949.45 653.736 949.584 654.003C951.95 658.705 961.947 669.611 962.374 673.875L961.731 672.772L961.761 673.256C957.282 667.744 952.913 661.995 947.918 656.945C936.954 647.011 925.691 638.759 912.947 631.231C907.696 628.352 902.424 625.689 897.009 623.135C888.812 645.984 878.512 668.519 862.777 687.283C856.132 695.998 847.92 707.043 839.455 713.92C836.463 713.899 831.864 713.302 829.111 714.274C810.942 715.738 797.622 715.53 779.756 711.245C784.457 707.768 790.646 705.37 795.851 702.689Q806.875 697.1 817.1 690.156C806.136 688.708 795.085 688.288 784.188 686.266C761.222 682.004 732.885 668.923 715.83 653.066C702.072 640.275 696.766 630.663 696.123 612.013C702.218 612.077 708.505 611.009 714.493 609.879C743.524 604.404 771.663 588.974 791.035 566.537C796.285 560.456 800.608 553.578 805.139 546.958Z"/>
	<path fill="#FEE986" transform="matrix(1.01855 0 0 1.01855 6.10352e-05 0)" d="M864.528 562.937C880.203 563.175 906.678 566.401 922.027 570.178C921.523 579.46 919.997 593.46 917.665 602.309C907.375 591.471 896.928 581.166 884.029 573.368C877.857 569.637 871.084 566.921 864.923 563.181L864.528 562.937Z"/>
	<path fill="#FA5B07" transform="matrix(1.01855 0 0 1.01855 6.10352e-05 0)" d="M922.027 570.178C936.125 573.028 950.618 577.598 963.175 584.727C961.544 593.061 960.621 601.563 959.285 609.952Q956.976 623.633 953.849 637.151C952.656 642.346 951.55 648.428 949.191 653.198L947.692 650.645C943.184 635.384 927.586 614.9 917.665 602.309C919.997 593.46 921.523 579.46 922.027 570.178Z"/>
	<path fill="#269082" transform="matrix(1.01855 0 0 1.01855 6.10352e-05 0)" d="M842.686 47.331C844.435 46.6866 846.168 46.2299 847.984 45.8148C856.823 59.9927 862.35 74.7244 867.365 90.5719C881.209 134.619 887.361 186.391 888.737 232.481C889.123 245.403 889.473 258.516 888.568 271.416C886.757 297.296 884.675 322.713 880.684 348.39C874.339 380.007 867.067 419.474 850.63 447.42C848.822 443.348 844.434 425.874 843.335 420.653C840.9 416.889 833.09 393.942 831.568 388.512C829.411 385.351 828.006 380.693 826.462 377.133C823.58 370.488 820.59 363.924 817.215 357.513C800.557 325.87 775.965 300.922 747.734 279.422Q732.36 268.195 715.571 259.222C714.211 258.596 712.885 257.876 711.552 257.19L707.129 254.695C685.467 240.223 663.893 233.271 640.616 222.932C637.542 246.591 606.564 318.945 588.79 334.466C584.382 338.316 578.526 341.618 572.491 341.001C569.269 340.671 566.54 339.138 564.513 336.621C560.013 331.037 558.898 322.306 558.591 315.363C558.079 303.786 559.603 291.786 561.112 280.316C564.328 255.876 569.499 231.749 572.103 207.243C589.107 209.889 605.526 212.567 621.958 217.806C635.986 195.209 652.141 175.145 670.136 155.664C680.17 145.358 690.696 135.725 701.416 126.148C736.037 97.9439 775.523 71.1169 817.472 55.2226C825.729 52.0942 834.198 49.7384 842.686 47.331Z"/>
	<path fill="#269082" transform="matrix(1.01855 0 0 1.01855 6.10352e-05 0)" d="M711.552 257.19C719.203 237.276 726.976 217.58 737.008 198.717C754.774 165.314 779.28 135.864 804.077 107.525C814.351 95.7832 825.562 80.9629 839.466 73.5514Q840.49 75.1378 841.403 76.7911C844.958 83.36 850.358 96.7615 848.17 104.172C846.434 99.3161 841.696 84.1001 837.785 81.6461C835.982 82.0018 834.783 83.0398 833.333 84.1158C814.895 95.3451 762.724 161.938 751.161 181.823C738.904 196.439 721.431 240.616 715.571 259.222C714.211 258.596 712.885 257.876 711.552 257.19Z"/>
	<path fill="#FEE986" transform="matrix(1.01855 0 0 1.01855 6.10352e-05 0)" d="M751.161 181.823C762.724 161.938 814.895 95.3451 833.333 84.1158C830.816 91.0812 825.143 97.4905 821.357 103.85Q803.619 133.593 789.092 165.029C786.942 169.778 784.111 174.93 782.845 179.993L782.618 180.01C772.623 174.978 764.344 177.601 754.356 180.891C753.286 181.243 752.272 181.619 751.161 181.823Z"/>
	<path fill="#FA5B07" transform="matrix(1.01855 0 0 1.01855 6.10352e-05 0)" d="M751.161 181.823C752.272 181.619 753.286 181.243 754.356 180.891C764.344 177.601 772.623 174.978 782.618 180.01C780.1 190.552 774.414 200.941 770.382 211.056Q759.436 237.791 751.847 265.666C750.641 270.156 749.794 275.266 747.734 279.422Q732.36 268.195 715.571 259.222C721.431 240.616 738.904 196.439 751.161 181.823Z"/>
	<path fill="#86D7C4" transform="matrix(1.01855 0 0 1.01855 6.10352e-05 0)" d="M640.616 222.932C644.307 216.303 649.265 210.13 653.814 204.072C670.847 181.392 686.618 165.722 707.585 146.774C730.269 126.274 754.325 107.236 780.974 92.0644C789.77 87.0572 798.985 83.675 808.193 79.5949C772.831 115.039 741.473 165.627 722.434 211.688C716.613 225.773 712.66 240.558 707.129 254.695C685.467 240.223 663.893 233.271 640.616 222.932Z"/>
	<path fill="#FEE986" transform="matrix(1.01855 0 0 1.01855 6.10352e-05 0)" d="M833.333 84.1158C834.783 83.0398 835.982 82.0018 837.785 81.6461C841.696 84.1001 846.434 99.3161 848.17 104.172C851.359 114.953 854.451 125.762 856.688 136.788C873.061 217.465 873.543 343.53 843.335 420.653C840.9 416.889 833.09 393.942 831.568 388.512C829.411 385.351 828.006 380.693 826.462 377.133C823.58 370.488 820.59 363.924 817.215 357.513C800.557 325.87 775.965 300.922 747.734 279.422C749.794 275.266 750.641 270.156 751.847 265.666Q759.436 237.791 770.382 211.056C774.414 200.941 780.1 190.552 782.618 180.01L782.845 179.993C784.111 174.93 786.942 169.778 789.092 165.029Q803.619 133.593 821.357 103.85C825.143 97.4905 830.816 91.0812 833.333 84.1158Z"/>
	<path fill="#FA5B07" transform="matrix(1.01855 0 0 1.01855 6.10352e-05 0)" d="M782.618 180.01L782.845 179.993C806.377 193.993 817.545 223.19 823.982 248.62C831.737 279.26 833.286 311.219 832.676 342.721C832.381 357.983 831.346 373.249 831.568 388.512C829.411 385.351 828.006 380.693 826.462 377.133C823.58 370.488 820.59 363.924 817.215 357.513C800.557 325.87 775.965 300.922 747.734 279.422C749.794 275.266 750.641 270.156 751.847 265.666Q759.436 237.791 770.382 211.056C774.414 200.941 780.1 190.552 782.618 180.01Z"/>
	<path fill="#86D7C4" transform="matrix(1.01855 0 0 1.01855 6.10352e-05 0)" d="M620.315 806.891C624.903 807.111 629.469 806.408 634.017 805.867C634.071 809.938 634.015 814.044 634.227 818.108Q635.339 830.047 637.436 841.854Q638.425 845.996 639.585 850.093Q640.744 854.191 642.072 858.237Q643.399 862.283 644.893 866.271Q646.386 870.258 648.043 874.181Q649.7 878.104 651.517 881.955Q653.334 885.806 655.308 889.579Q657.283 893.352 659.411 897.04Q661.54 900.728 663.819 904.325C667.908 910.754 672.119 917.016 676.8 923.032C680.715 928.063 685.454 933.106 688.641 938.605C699.108 957.951 705.264 981.102 708.926 1002.75C710.118 1009.8 710.652 1016.97 711.89 1024L687.516 1024L452.679 1024L344.964 1024L316.046 1024C315.517 994.719 325.714 967.593 337.81 941.394C344.652 928.668 352.326 916.374 358.995 903.565C367.417 888.607 374.147 873.198 380.148 857.141Q386.575 838.965 390.713 820.135C391.816 815.982 392.525 811.731 393.309 807.509C396.063 806.545 407.397 809.202 411.065 809.659C424.566 811.342 438.223 812.327 451.786 813.397Q451.97 823.743 451.935 834.091L452.029 834.563C463.501 836.881 472.771 835.96 483.552 837.404C512.434 838.504 540.732 837.079 569.434 833.947L569.532 833.642C569.503 826.754 569.495 819.884 569.76 812.999C574.742 812.209 579.955 811.992 584.986 811.51C596.788 810.379 608.687 809.255 620.315 806.891Z"/>
	<path fill="#86D7C4" transform="matrix(1.01855 0 0 1.01855 6.10352e-05 0)" d="M620.315 806.891C624.903 807.111 629.469 806.408 634.017 805.867C634.071 809.938 634.015 814.044 634.227 818.108Q635.339 830.047 637.436 841.854Q638.425 845.996 639.585 850.093Q640.744 854.191 642.072 858.237Q643.399 862.283 644.893 866.271Q646.386 870.258 648.043 874.181Q649.7 878.104 651.517 881.955Q653.334 885.806 655.308 889.579Q657.283 893.352 659.411 897.04Q661.54 900.728 663.819 904.325C667.908 910.754 672.119 917.016 676.8 923.032C680.715 928.063 685.454 933.106 688.641 938.605C699.108 957.951 705.264 981.102 708.926 1002.75C710.118 1009.8 710.652 1016.97 711.89 1024L687.516 1024C681.719 1021.02 675.375 1019.14 669.551 1016.03C655.142 1008.32 642.837 996.835 632.061 984.658C607.457 956.857 590.384 925.402 579.638 889.906L579.744 889.584C577.988 880.91 575.284 872.362 573.453 863.673C571.385 853.857 570.437 843.915 569.434 833.947L569.532 833.642C569.503 826.754 569.495 819.884 569.76 812.999C574.742 812.209 579.955 811.992 584.986 811.51C596.788 810.379 608.687 809.255 620.315 806.891Z"/>
	<path fill="#269082" transform="matrix(1.01855 0 0 1.01855 6.10352e-05 0)" d="M620.315 806.891C624.903 807.111 629.469 806.408 634.017 805.867C634.071 809.938 634.015 814.044 634.227 818.108Q635.339 830.047 637.436 841.854C627.39 853.033 592.405 885.694 579.744 889.584C577.988 880.91 575.284 872.362 573.453 863.673C571.385 853.857 570.437 843.915 569.434 833.947L569.532 833.642C569.503 826.754 569.495 819.884 569.76 812.999C574.742 812.209 579.955 811.992 584.986 811.51C596.788 810.379 608.687 809.255 620.315 806.891Z"/>
	<path fill="#269082" transform="matrix(1.01855 0 0 1.01855 6.10352e-05 0)" d="M620.315 806.891C624.903 807.111 629.469 806.408 634.017 805.867C634.071 809.938 634.015 814.044 634.227 818.108C632.376 821.403 618.774 824.341 614.964 825.407C602.416 828.918 582.114 833.305 569.532 833.642C569.503 826.754 569.495 819.884 569.76 812.999C574.742 812.209 579.955 811.992 584.986 811.51C596.788 810.379 608.687 809.255 620.315 806.891Z"/>
	<path fill="#B8D89B" transform="matrix(1.01855 0 0 1.01855 6.10352e-05 0)" d="M483.552 837.404C512.434 838.504 540.732 837.079 569.434 833.947C570.437 843.915 571.385 853.857 573.453 863.673C575.284 872.362 577.988 880.91 579.744 889.584L579.638 889.906C555.788 902.674 530.73 913.673 503.557 916.69C498.076 917.298 492.477 917.377 486.964 917.345C484.008 917.328 480.409 916.891 477.539 917.373C474.518 940.05 470.837 962.526 464.749 984.607C461.109 997.81 456.023 1010.78 452.679 1024L344.964 1024C356.485 1018.5 367.837 1013.32 378.406 1006.04C410.372 984.008 435.434 949.584 442.663 911.09C444.495 905.215 445.156 898.613 446.153 892.515C449.326 873.119 451.557 854.206 452.029 834.563C463.501 836.881 472.771 835.96 483.552 837.404Z"/>
	<path fill="#B8D89B" transform="matrix(1.01855 0 0 1.01855 6.10352e-05 0)" d="M452.029 834.563C463.501 836.881 472.771 835.96 483.552 837.404C482.217 837.492 480.728 837.316 479.606 838.057C479.454 844.722 480.411 851.44 480.53 858.122Q481.018 880.683 479.013 903.16C478.643 907.456 478.719 913.016 477.461 917.092C465.571 915.924 454.295 913.71 442.663 911.09C444.495 905.215 445.156 898.613 446.153 892.515C449.326 873.119 451.557 854.206 452.029 834.563Z"/>
	<path fill="#269082" transform="matrix(1.01855 0 0 1.01855 6.10352e-05 0)" d="M393.309 807.509C396.063 806.545 407.397 809.202 411.065 809.659C424.566 811.342 438.223 812.327 451.786 813.397Q451.97 823.743 451.935 834.091L452.029 834.563C451.557 854.206 449.326 873.119 446.153 892.515C445.156 898.613 444.495 905.215 442.663 911.09C435.434 949.584 410.372 984.008 378.406 1006.04C367.837 1013.32 356.485 1018.5 344.964 1024L316.046 1024C315.517 994.719 325.714 967.593 337.81 941.394C344.652 928.668 352.326 916.374 358.995 903.565C367.417 888.607 374.147 873.198 380.148 857.141Q386.575 838.965 390.713 820.135C391.816 815.982 392.525 811.731 393.309 807.509Z"/>
	<path fill="#269082" transform="matrix(1.01855 0 0 1.01855 6.10352e-05 0)" d="M393.309 807.509C396.063 806.545 407.397 809.202 411.065 809.659C424.566 811.342 438.223 812.327 451.786 813.397Q451.97 823.743 451.935 834.091C439.915 834.582 403.945 823.776 390.713 820.135C391.816 815.982 392.525 811.731 393.309 807.509Z"/>
	<path fill="#86D7C4" transform="matrix(1.01855 0 0 1.01855 6.10352e-05 0)" d="M451.664 589.511C452.37 582.157 454.652 576.483 460.522 571.699C476.7 558.514 506.185 556.331 526.393 558.512C539.071 559.881 554.272 564.232 562.576 574.631C567.223 580.45 567.732 585.694 567.563 592.813L567.402 595.437C610.819 599.597 642.993 615.04 674.719 644.772C689.979 659.073 704.362 673.666 721.791 685.429C734.523 694.021 748.229 700.479 762.629 705.75C768.057 707.737 773.804 709.235 779.137 711.39L779.756 711.245C797.622 715.53 810.942 715.738 829.111 714.274L830.262 714.692C828.29 720.636 785.584 743.17 777.331 747.306Q771.11 750.448 764.742 753.28C757.474 758.712 748.015 762.462 739.819 766.269Q721.577 774.662 702.775 781.708Q683.972 788.754 664.707 794.416Q650.915 798.452 637.062 802.275C631.537 803.777 625.696 804.975 620.315 806.891C608.687 809.255 596.788 810.379 584.986 811.51C579.955 811.992 574.742 812.209 569.76 812.999C569.495 819.884 569.503 826.754 569.532 833.642L569.434 833.947C540.732 837.079 512.434 838.504 483.552 837.404C472.771 835.96 463.501 836.881 452.029 834.563L451.935 834.091Q451.97 823.743 451.786 813.397C438.223 812.327 424.566 811.342 411.065 809.659C407.397 809.202 396.063 806.545 393.309 807.509C390.804 805.911 382.441 805.482 379.043 804.871C367.027 802.711 354.956 799.939 343.077 797.111C331.183 794.279 319.436 790.371 307.899 786.357C271.932 773.846 238.401 757.692 207.446 735.378C199.067 729.338 189.358 722.369 183.081 714.093C203.535 721.077 222.366 720.885 243.085 714.326L243.341 714.439C254.226 710.413 265.408 706.001 275.123 699.581L275.416 699.625Q293.259 687.622 309.722 673.788C342.243 646.116 370.207 615.909 411.672 601.37C424.718 596.796 438.502 594.412 452.117 592.263L451.664 589.511Z"/>
	<path fill="#269082" transform="matrix(1.01855 0 0 1.01855 6.10352e-05 0)" d="M451.664 589.511C453.507 592.733 455.065 596.081 457.131 599.174C462.728 607.556 470.278 614.441 477.402 621.49C482.566 626.86 488.666 631.468 494.986 635.393Q503.088 640.283 511.26 645.055C517.49 642.278 524.509 638.055 529.881 633.879C536.667 629.25 542.454 624.231 548.249 618.415C554.348 612.509 559.967 606.646 564.27 599.253C565.347 597.402 566.084 595.395 567.142 593.54L567.563 592.813L567.402 595.437Q566.979 596.757 566.526 598.067C558.794 620.331 534.387 641.159 513.538 651.285C513.874 667.019 515.72 680.003 525.886 692.687C537.322 706.957 555.962 713.588 573.643 715.407C597.887 717.902 623.287 711.045 642.467 695.865C648.062 691.436 652.548 685.852 658.06 681.406C657.959 681.689 657.889 681.984 657.758 682.253C656.907 684.01 655.084 685.867 653.854 687.456C645.196 698.642 634.712 707.522 621.841 713.521C598.749 724.283 572.86 726.246 548.974 716.912C542.222 714.273 536.256 711.351 530.663 706.673C525.717 702.536 517.962 692.098 512.756 690.189C507.048 690.538 501.542 698.613 497.556 702.378C494.293 705.459 490.531 708.685 486.643 710.94C464.777 723.619 439.333 725.923 415.037 719.539C393.861 713.975 373.17 701.04 361.883 681.773L362.487 681.758Q363.816 683.525 365.34 685.127C383.988 704.747 407.924 715.331 434.961 716.081C455.405 716.649 477.426 712.009 492.659 697.415C506.789 683.877 509.087 670.027 509.562 651.376C483.004 636.121 463.104 622.666 452.117 592.263L451.664 589.511Z"/>
	<path fill="#FA5B07" transform="matrix(1.01855 0 0 1.01855 6.10352e-05 0)" d="M451.664 589.511C452.37 582.157 454.652 576.483 460.522 571.699C476.7 558.514 506.185 556.331 526.393 558.512C539.071 559.881 554.272 564.232 562.576 574.631C567.223 580.45 567.732 585.694 567.563 592.813L567.142 593.54C566.084 595.395 565.347 597.402 564.27 599.253C559.967 606.646 554.348 612.509 548.249 618.415C542.454 624.231 536.667 629.25 529.881 633.879C524.509 638.055 517.49 642.278 511.26 645.055Q503.088 640.283 494.986 635.393C488.666 631.468 482.566 626.86 477.402 621.49C470.278 614.441 462.728 607.556 457.131 599.174C455.065 596.081 453.507 592.733 451.664 589.511Z"/>
	<path fill="#462114" transform="matrix(1.01855 0 0 1.01855 6.10352e-05 0)" d="M484.38 602.859C493.566 610.738 493.949 624.129 494.986 635.393C488.666 631.468 482.566 626.86 477.402 621.49C478.841 614.979 480.92 608.604 484.38 602.859Z"/>
	<path fill="#462114" transform="matrix(1.01855 0 0 1.01855 6.10352e-05 0)" d="M538.91 601.285C542.571 606.713 544.206 613.318 548.249 618.415C542.454 624.231 536.667 629.25 529.881 633.879C529.858 633.474 529.841 633.068 529.832 632.662C529.594 621.969 531.129 609.277 538.91 601.285Z"/>
	<path fill="#FEE986" transform="matrix(1.01855 0 0 1.01855 6.10352e-05 0)" d="M516.448 570.706C519.36 570.399 522.446 570.451 525.372 570.498C533.255 570.626 548.041 570.312 553.589 576.488C554.806 577.842 555.673 579.673 555.401 581.532C555.205 582.867 554.465 583.77 553.432 584.575C550.687 586.714 546.854 586.53 543.684 585.906C534.263 583.434 512.729 580.64 505.149 576.666C503.949 576.038 503.452 575.698 503.091 574.395C503.17 574.272 503.233 574.137 503.329 574.026C505.552 571.453 513.262 570.983 516.448 570.706Z"/>
	<path fill="#B8D89B" transform="matrix(1.01855 0 0 1.01855 6.10352e-05 0)" d="M275.123 699.581L275.416 699.625C292.786 711.6 309.816 722.914 328.753 732.367C417.623 776.726 521.558 783.126 618.11 765.418Q628.596 763.531 639.006 761.263Q649.416 758.995 659.737 756.35Q670.058 753.705 680.276 750.686Q690.493 747.667 700.594 744.278Q710.695 740.889 720.666 737.134Q730.637 733.379 740.465 729.264Q750.292 725.149 759.964 720.679Q769.635 716.209 779.137 711.39L779.756 711.245C797.622 715.53 810.942 715.738 829.111 714.274L830.262 714.692C828.29 720.636 785.584 743.17 777.331 747.306Q771.11 750.448 764.742 753.28C757.474 758.712 748.015 762.462 739.819 766.269Q721.577 774.662 702.775 781.708Q683.972 788.754 664.707 794.416Q650.915 798.452 637.062 802.275C631.537 803.777 625.696 804.975 620.315 806.891C608.687 809.255 596.788 810.379 584.986 811.51C579.955 811.992 574.742 812.209 569.76 812.999C569.495 819.884 569.503 826.754 569.532 833.642L569.434 833.947C540.732 837.079 512.434 838.504 483.552 837.404C472.771 835.96 463.501 836.881 452.029 834.563L451.935 834.091Q451.97 823.743 451.786 813.397C438.223 812.327 424.566 811.342 411.065 809.659C407.397 809.202 396.063 806.545 393.309 807.509C390.804 805.911 382.441 805.482 379.043 804.871C367.027 802.711 354.956 799.939 343.077 797.111C331.183 794.279 319.436 790.371 307.899 786.357C271.932 773.846 238.401 757.692 207.446 735.378C199.067 729.338 189.358 722.369 183.081 714.093C203.535 721.077 222.366 720.885 243.085 714.326L243.341 714.439C254.226 710.413 265.408 706.001 275.123 699.581Z"/>
	<path fill="#B8D89B" transform="matrix(1.01855 0 0 1.01855 6.10352e-05 0)" d="M451.786 813.397C463.284 813.602 474.774 814.699 486.277 814.951Q528.067 816.028 569.76 812.999C569.495 819.884 569.503 826.754 569.532 833.642L569.434 833.947C540.732 837.079 512.434 838.504 483.552 837.404C472.771 835.96 463.501 836.881 452.029 834.563L451.935 834.091Q451.97 823.743 451.786 813.397Z"/>
	<path fill="#B8D89B" transform="matrix(1.01855 0 0 1.01855 6.10352e-05 0)" d="M275.123 699.581L275.416 699.625C292.786 711.6 309.816 722.914 328.753 732.367C417.623 776.726 521.558 783.126 618.11 765.418Q628.596 763.531 639.006 761.263Q649.416 758.995 659.737 756.35Q670.058 753.705 680.276 750.686Q690.493 747.667 700.594 744.278Q710.695 740.889 720.666 737.134Q730.637 733.379 740.465 729.264Q750.292 725.149 759.964 720.679Q769.635 716.209 779.137 711.39L779.756 711.245C797.622 715.53 810.942 715.738 829.111 714.274L830.262 714.692C828.29 720.636 785.584 743.17 777.331 747.306Q771.11 750.448 764.742 753.28C762.651 753.129 730.413 764.878 723.967 766.705Q711.706 770.177 699.332 773.221Q686.958 776.265 674.486 778.878Q662.014 781.49 649.459 783.669Q636.904 785.847 624.281 787.589Q611.657 789.33 598.981 790.632Q586.305 791.934 573.591 792.796Q560.878 793.657 548.142 794.077Q535.406 794.497 522.663 794.474C436.795 794.159 347.682 781.538 273.597 735.232C266.557 730.833 248.473 719.613 243.341 714.439C254.226 710.413 265.408 706.001 275.123 699.581Z"/>
	<path fill="#269082" transform="matrix(1.01855 0 0 1.01855 6.10352e-05 0)" d="M135.379 271.288C133.293 253.607 134.416 234.628 135.185 216.827Q135.583 207.295 136.333 197.785Q137.083 188.275 138.185 178.799Q139.286 169.322 140.738 159.894Q142.189 150.465 143.989 141.096Q145.788 131.727 147.933 122.432Q150.078 113.136 152.565 103.926Q155.052 94.716 157.878 85.6043Q160.705 76.4926 163.866 67.4918C165.581 62.5492 169.754 48.9614 173.354 45.6583L174.937 45.7831C184.174 48.135 193.376 49.8947 202.463 52.8789C247.151 67.5549 286.09 94.8185 322.417 123.985C333.582 133.988 344.746 143.889 355.267 154.574Q383.431 183.397 409.234 214.352C418.119 212.247 427.16 210.762 436.143 209.134C438.987 216.956 440.51 225.612 442.458 233.707C448.025 256.842 454.893 282.493 456.287 306.135C456.795 314.741 456.815 324.997 453.208 333.022C451.808 336.137 449.584 339.181 446.309 340.482C442.026 342.185 436.137 341.376 432.053 339.478C422.744 335.15 416.899 324.876 411.397 316.704C392.245 288.261 377.145 256.814 364.512 224.974C354.516 228.795 344.383 232.959 334.744 237.608C329.738 240.023 319.629 246.242 314.896 247.447C312.933 248.795 310.905 249.975 308.84 251.154L306.703 252.314C294.019 260.552 280.784 268.692 269.273 278.532L268.836 278.896C268.696 279.203 268.559 279.512 268.415 279.817C265.325 286.364 257.932 295.192 253.853 301.914C239.489 325.589 221.911 363.315 220.844 390.828C226.76 389.977 232.487 388.068 238.28 386.635C212.772 410.355 199.475 440.874 198.266 475.677C197.069 510.087 207.53 541.051 231.279 566.304C239.536 575.084 249.783 585.113 260.754 590.288C264.464 593.159 269.485 595.335 273.774 597.258C294.036 606.347 316.733 612.166 339.034 611.945C313.523 647.569 291.819 663.828 251.146 679.493C258.865 686.507 267.352 692.645 275.123 699.581C265.408 706.001 254.226 710.413 243.341 714.439L243.085 714.326C222.366 720.885 203.535 721.077 183.081 714.093C176.006 708.671 170.152 701.258 164.331 694.562C146.59 672.663 133.736 647.984 131.374 619.481C124.219 622.919 117.346 627.129 110.439 631.044C97.6719 638.478 85.6722 646.824 75.5658 657.709C71.4227 661.744 67.4027 665.708 63.936 670.357L63.6586 670.041C66.516 664.17 70.3549 658.706 73.4791 652.95C66.6789 633.959 62.9523 608.18 59.8916 588.01C56.6916 590.397 53.3419 592.601 50.0486 594.858L50.5674 594.254C53.5317 590.753 57.3327 588.336 60.6454 585.202C58.3895 575.869 58.035 565.83 57.1445 556.288Q56.5006 549.869 56.1285 543.429C53.0669 490.144 64.5781 423.544 82.5548 373.42C90.9038 350.141 101.191 328.192 113.191 306.603C118.671 296.744 128.179 279.358 135.379 271.288Z"/>
	<path fill="#269082" transform="matrix(1.01855 0 0 1.01855 6.10352e-05 0)" d="M185.989 71.9833C200.953 81.0862 213.566 94.2607 225.04 107.346Q230.834 113.928 236.355 120.741Q241.876 127.554 247.114 134.587Q252.352 141.62 257.299 148.861Q262.245 156.101 266.892 163.538Q271.539 170.975 275.879 178.595Q280.218 186.215 284.243 194.006Q288.268 201.797 291.971 209.746Q295.674 217.695 299.05 225.788C301.703 232.048 307.076 243.873 308.639 250.058C308.75 250.498 308.766 250.68 308.84 251.154L306.703 252.314C304.534 243.712 286.406 204.512 280.858 197.38C277.826 190.72 273.588 184.284 269.917 177.943C248.488 140.937 219.013 100.525 183.902 75.436C184.454 74.0506 185.063 73.1562 185.989 71.9833Z"/>
	<path fill="#269082" transform="matrix(1.01855 0 0 1.01855 6.10352e-05 0)" d="M69.5252 577.338C77.086 574.705 84.2862 571.129 91.9025 568.614C127.213 556.953 165.018 551.593 201.82 558.592C163.194 562.21 129.051 588.221 105.048 617.288C102.579 620.279 90.5222 634.457 89.7309 636.821C87.2445 639.695 78.2082 649.59 75.1755 650.353C74.4987 651.199 73.9788 651.989 73.4791 652.95C66.6789 633.959 62.9523 608.18 59.8916 588.01C56.6916 590.397 53.3419 592.601 50.0486 594.858L50.5674 594.254C53.5317 590.753 57.3327 588.336 60.6454 585.202C63.725 582.763 66.5976 579.963 69.5252 577.338Z"/>
	<path fill="#FEE986" transform="matrix(1.01855 0 0 1.01855 6.10352e-05 0)" d="M102.043 573.482C118.97 570.039 136.274 566.86 153.579 566.283C136.201 576.723 120.982 588.615 107.427 603.743C103.762 596.583 102.194 581.477 102.043 573.482Z"/>
	<path fill="#FA5B07" transform="matrix(1.01855 0 0 1.01855 6.10352e-05 0)" d="M59.8916 588.01C72.3963 580.756 87.9995 576.688 102.043 573.482C102.194 581.477 103.762 596.583 107.427 603.743C97.8188 615.024 89.6423 626.757 81.7796 639.3C79.5506 642.856 76.8627 646.512 75.1755 650.353C74.4987 651.199 73.9788 651.989 73.4791 652.95C66.6789 633.959 62.9523 608.18 59.8916 588.01Z"/>
	<path fill="#FEE986" transform="matrix(1.01855 0 0 1.01855 6.10352e-05 0)" d="M100.641 550.489C100.549 550.395 100.449 550.309 100.367 550.206C97.1364 546.158 98.82 522.276 99.062 515.911C100.507 477.903 106.177 441.314 117.333 404.915C121.858 390.153 126.666 376.358 133.706 362.604C136.166 357.798 138.243 351.241 142.228 347.536C145.254 366.712 153.376 423.423 166.887 436.036C164.73 471.789 141.954 514.88 115.394 538.477C111.714 541.747 107.273 544.751 103.958 548.344C102.752 548.981 101.735 549.671 100.641 550.489Z"/>
	<path fill="#86D7C4" transform="matrix(1.01855 0 0 1.01855 6.10352e-05 0)" d="M222.873 80.0691C237.589 87.7833 251.32 96.9098 265.089 106.159C275.949 113.454 287.007 120.597 297.452 128.481C322.445 147.345 345.904 169.516 367.256 192.399C374.747 200.428 382.878 208.546 389.183 217.529C380.822 219.643 372.624 222.042 364.512 224.974C354.516 228.795 344.383 232.959 334.744 237.608C329.738 240.023 319.629 246.242 314.896 247.447C310.082 236.66 306.461 225.374 301.755 214.53C285.51 177.103 266.335 139.59 242.885 106.159C236.638 97.2516 230.667 87.706 222.873 80.0691Z"/>
	<path fill="#FA5B07" transform="matrix(1.01855 0 0 1.01855 6.10352e-05 0)" d="M57.1445 556.288Q56.5006 549.869 56.1285 543.429C53.0669 490.144 64.5781 423.544 82.5548 373.42C90.9038 350.141 101.191 328.192 113.191 306.603C118.671 296.744 128.179 279.358 135.379 271.288C136.039 284.057 136.516 296.761 137.738 309.499C138.956 322.208 140.911 334.84 142.228 347.536C138.243 351.241 136.166 357.798 133.706 362.604C126.666 376.358 121.858 390.153 117.333 404.915C106.177 441.314 100.507 477.903 99.062 515.911C98.82 522.276 97.1364 546.158 100.367 550.206C100.449 550.309 100.549 550.395 100.641 550.489C90.61 558.614 77.6927 567.517 69.5252 577.338C66.5976 579.963 63.725 582.763 60.6454 585.202C58.3895 575.869 58.035 565.83 57.1445 556.288Z"/>
	<path fill="#FEE986" transform="matrix(1.01855 0 0 1.01855 6.10352e-05 0)" d="M183.902 75.436C219.013 100.525 248.488 140.937 269.917 177.943C273.588 184.284 277.826 190.72 280.858 197.38C286.406 204.512 304.534 243.712 306.703 252.314C294.019 260.552 280.784 268.692 269.273 278.532L268.836 278.896C263.168 282.132 256.666 288.145 252.357 292.984C230.28 310.767 211.572 340.817 197.49 364.968C191.807 375.536 186.488 386.054 181.715 397.065C179.338 402.548 177.562 408.764 174.843 414.023C172.788 409.411 171.47 404.396 170.191 399.516C149.441 320.37 147.049 205.523 165.939 125.856C169.769 109.705 174.179 92.6719 182.622 78.2583L183.902 75.436Z"/>
	<path fill="#FA5B07" transform="matrix(1.01855 0 0 1.01855 6.10352e-05 0)" d="M237.368 186.406C242.232 182.809 248.497 180.736 254.546 181.547C265.694 183.042 272.448 191.042 280.858 197.38C286.406 204.512 304.534 243.712 306.703 252.314C294.019 260.552 280.784 268.692 269.273 278.532L268.836 278.896C263.168 282.132 256.666 288.145 252.357 292.984C230.28 310.767 211.572 340.817 197.49 364.968C195.876 358.97 195.674 351.909 194.956 345.717C191.461 315.612 190.431 285.594 196.177 255.647C201.453 228.141 213.426 202.424 237.106 186.39L237.368 186.406Z"/>
	<path fill="#FA5B07" transform="matrix(1.01855 0 0 1.01855 6.10352e-05 0)" d="M237.368 186.406C242.232 182.809 248.497 180.736 254.546 181.547C265.694 183.042 272.448 191.042 280.858 197.38C286.406 204.512 304.534 243.712 306.703 252.314C294.019 260.552 280.784 268.692 269.273 278.532C268.5 270.778 266.588 263.199 264.602 255.684C257.865 230.192 248.368 210.102 237.368 186.406Z"/>
	<path fill="#86D7C4" transform="matrix(1.01855 0 0 1.01855 6.10352e-05 0)" d="M450.705 206.72C487.378 203.081 523.299 202.071 560.027 205.787C564.111 206.091 568.078 206.475 572.103 207.243C569.499 231.749 564.328 255.876 561.112 280.316C559.603 291.786 558.079 303.786 558.591 315.363C558.898 322.306 560.013 331.037 564.513 336.621C566.54 339.138 569.269 340.671 572.491 341.001C578.526 341.618 584.382 338.316 588.79 334.466C606.564 318.945 637.542 246.591 640.616 222.932C663.893 233.271 685.467 240.223 707.129 254.695L711.552 257.19C712.885 257.876 714.211 258.596 715.571 259.222Q732.36 268.195 747.734 279.422C775.965 300.922 800.557 325.87 817.215 357.513C820.59 363.924 823.58 370.488 826.462 377.133C828.006 380.693 829.411 385.351 831.568 388.512C833.09 393.942 840.9 416.889 843.335 420.653C844.434 425.874 848.822 443.348 850.63 447.42C855.697 467.834 860.696 488.4 873.962 505.308C881.18 514.508 889.732 522.697 897.623 531.316C873.464 527.37 846.27 528.362 823.374 537.53C817.039 540.067 811.389 544.664 805.139 546.958C800.608 553.578 796.285 560.456 791.035 566.537C771.663 588.974 743.524 604.404 714.493 609.879C708.505 611.009 702.218 612.077 696.123 612.013C696.766 630.663 702.072 640.275 715.83 653.066C732.885 668.923 761.222 682.004 784.188 686.266C795.085 688.288 806.136 688.708 817.1 690.156Q806.875 697.1 795.851 702.689C790.646 705.37 784.457 707.768 779.756 711.245L779.137 711.39C773.804 709.235 768.057 707.737 762.629 705.75C748.229 700.479 734.523 694.021 721.791 685.429C704.362 673.666 689.979 659.073 674.719 644.772C642.993 615.04 610.819 599.597 567.402 595.437L567.563 592.813C567.732 585.694 567.223 580.45 562.576 574.631C554.272 564.232 539.071 559.881 526.393 558.512C506.185 556.331 476.7 558.514 460.522 571.699C454.652 576.483 452.37 582.157 451.664 589.511L452.117 592.263C438.502 594.412 424.718 596.796 411.672 601.37C370.207 615.909 342.243 646.116 309.722 673.788Q293.259 687.622 275.416 699.625L275.123 699.581C267.352 692.645 258.865 686.507 251.146 679.493C291.819 663.828 313.523 647.569 339.034 611.945C316.733 612.166 294.036 606.347 273.774 597.258C269.485 595.335 264.464 593.159 260.754 590.288C249.783 585.113 239.536 575.084 231.279 566.304C207.53 541.051 197.069 510.087 198.266 475.677C199.475 440.874 212.772 410.355 238.28 386.635C232.487 388.068 226.76 389.977 220.844 390.828C221.911 363.315 239.489 325.589 253.853 301.914C257.932 295.192 265.325 286.364 268.415 279.817C268.559 279.512 268.696 279.203 268.836 278.896L269.273 278.532C280.784 268.692 294.019 260.552 306.703 252.314L308.84 251.154C310.905 249.975 312.933 248.795 314.896 247.447C319.629 246.242 329.738 240.023 334.744 237.608C344.383 232.959 354.516 228.795 364.512 224.974C377.145 256.814 392.245 288.261 411.397 316.704C416.899 324.876 422.744 335.15 432.053 339.478C436.137 341.376 442.026 342.185 446.309 340.482C449.584 339.181 451.808 336.137 453.208 333.022C456.815 324.997 456.795 314.741 456.287 306.135C454.893 282.493 448.025 256.842 442.458 233.707C440.51 225.612 438.987 216.956 436.143 209.134C440.403 207.642 446.157 207.41 450.705 206.72Z"/>
	<path fill="#269082" transform="matrix(1.01855 0 0 1.01855 6.10352e-05 0)" d="M686.709 280.705C690.729 280.66 694.689 281.326 698.226 283.327C701.876 285.391 703.98 288.479 704.969 292.526C706.167 297.431 704.96 302.177 702.251 306.356C690.541 324.417 651.87 341.723 631.116 346.398Q629.857 346.628 628.589 346.805C624.314 347.412 618.574 347.581 615.069 344.706C613.527 343.441 612.72 341.676 612.543 339.711C611.85 331.985 618.81 323.255 623.531 317.766C639.115 299.647 662.154 282.5 686.709 280.705Z"/>
	<path fill="#269082" transform="matrix(1.01855 0 0 1.01855 6.10352e-05 0)" d="M321.797 277.17Q322.449 277.113 323.103 277.075C343.147 275.947 365.49 290.328 379.734 303.146C388.466 311.003 405.073 327.154 405.328 339.35C405.375 341.583 404.744 343.807 403.075 345.364C400.213 348.035 395.111 348.432 391.403 348.296C369.752 346.436 344.187 332.261 326.752 319.683C318.863 313.991 307.495 305.578 306.041 295.182Q305.927 294.314 305.901 293.44Q305.875 292.565 305.937 291.692Q306 290.82 306.15 289.958Q306.3 289.096 306.537 288.253Q306.774 287.411 307.095 286.597Q307.416 285.783 307.817 285.005Q308.218 284.228 308.696 283.495Q309.174 282.762 309.724 282.081C312.779 278.345 317.3 277.709 321.797 277.17Z"/>
	<path fill="#FEE986" transform="matrix(1.01855 0 0 1.01855 6.10352e-05 0)" d="M239.525 386.227C265.841 363.319 295.635 351.73 330.815 354.149C371.49 356.946 402.814 377.647 428.779 407.719C451.446 433.971 465.772 472.025 463.269 506.846C461.234 535.16 450.213 560.294 428.454 578.945C403.299 600.507 371.57 609.89 339.034 611.945C316.733 612.166 294.036 606.347 273.774 597.258C269.485 595.335 264.464 593.159 260.754 590.288L261.043 589.978C263.102 590.387 265.735 592.04 267.475 593.211C270.184 595.034 273.215 595.64 276.16 596.942C277.551 597.557 278.707 598.565 280.109 599.197C293.728 605.333 311.224 608.984 326.03 610.512C359.958 614.015 400.445 600.765 426.582 579.248C438.681 569.287 448.954 556.006 454.774 541.369C455.714 539.005 457.057 536.052 457.157 533.498C457.211 532.106 456.913 531.587 456.036 530.559C453.838 529.883 451.49 531.635 449.112 531.692C447.983 530.895 447.778 530.245 447.169 529.046L446.892 528.494C446.439 528.837 443.355 543.898 442.445 546.306L441.865 546.359C443.756 538.224 445.717 530.366 446.48 522.002C449.762 486.029 436.429 449.344 413.456 421.839C391.365 395.39 364.054 380.094 329.624 376.971C326.118 374.987 320.43 375.339 316.499 375.335C290.54 375.307 264.709 380.369 239.525 386.227Z"/>
	<path fill="#269082" transform="matrix(1.01855 0 0 1.01855 6.10352e-05 0)" d="M450.705 206.72C487.378 203.081 523.299 202.071 560.027 205.787C557.846 219.69 556.068 233.672 553.639 247.532C550.737 264.092 547.052 280.551 543.543 296.992C539.585 315.544 535.675 334.738 528.689 352.424C525.842 359.632 521.882 368.719 515.416 373.433C512.873 375.287 509.878 376.361 506.714 375.848C501.673 375.031 497.58 370.402 494.816 366.381C478.784 343.055 467.061 284.528 460.258 255.594C457.227 242.702 450.767 219.006 450.705 206.72Z"/>
	<path fill="#462114" transform="matrix(1.01855 0 0 1.01855 6.10352e-05 0)" d="M239.525 386.227C264.709 380.369 290.54 375.307 316.499 375.335C320.43 375.339 326.118 374.987 329.624 376.971C364.054 380.094 391.365 395.39 413.456 421.839C436.429 449.344 449.762 486.029 446.48 522.002C445.717 530.366 443.756 538.224 441.865 546.359L442.445 546.306C443.355 543.898 446.439 528.837 446.892 528.494L447.169 529.046C447.778 530.245 447.983 530.895 449.112 531.692C451.49 531.635 453.838 529.883 456.036 530.559C456.913 531.587 457.211 532.106 457.157 533.498C457.057 536.052 455.714 539.005 454.774 541.369C448.954 556.006 438.681 569.287 426.582 579.248C400.445 600.765 359.958 614.015 326.03 610.512C311.224 608.984 293.728 605.333 280.109 599.197C278.707 598.565 277.551 597.557 276.16 596.942C273.215 595.64 270.184 595.034 267.475 593.211C265.735 592.04 263.102 590.387 261.043 589.978L260.754 590.288C249.783 585.113 239.536 575.084 231.279 566.304C207.53 541.051 197.069 510.087 198.266 475.677C199.475 440.874 212.772 410.355 238.28 386.635L239.525 386.227Z"/>
	<path fill="#FEE986" transform="matrix(1.01855 0 0 1.01855 6.10352e-05 0)" d="M233.245 497.383C230.237 483.567 235.096 463.835 240.864 451.203C250.46 430.188 270.667 410.833 292.374 402.735L292.06 403.053C287.858 407.223 282.736 410.379 278.649 414.692C261.72 432.563 250.418 458.217 250.013 482.935C250.003 483.512 250.033 484.073 250.067 484.649L249.956 485.105C247.644 485.804 234.62 495.341 233.245 497.383Z"/>
	<path fill="#86D7C4" transform="matrix(1.01855 0 0 1.01855 6.10352e-05 0)" d="M416.629 450.546C436.802 476.517 443.415 516.631 439.423 548.489Q439.152 550.645 438.858 552.798C436.689 559.506 417.997 570.024 411.431 573.348C406.188 576.002 400.712 577.961 395.361 580.347C385.72 583.469 376.475 585.721 366.411 586.853C332.14 590.709 297.89 583.524 270.589 561.562C251.139 545.917 235.87 522.6 233.245 497.383C234.62 495.341 247.644 485.804 249.956 485.105C251.396 511.599 260.822 536.055 280.927 553.949C299.335 570.332 321.305 578.178 345.908 576.605C367.454 575.227 385.11 565.963 399.251 549.878C413.64 533.511 419.564 514.826 420.57 493.268C421.582 483.482 421.057 472.774 419.291 463.1C418.577 459.19 417.297 455.282 416.74 451.376L416.629 450.546Z"/>
	<path fill="#FEE986" transform="matrix(1.01855 0 0 1.01855 6.10352e-05 0)" d="M292.374 402.735C308.772 393.933 334.778 394.435 352.192 399.701C379.551 407.976 401.849 426.173 416.629 450.546L416.74 451.376C417.297 455.282 418.577 459.19 419.291 463.1C421.057 472.774 421.582 483.482 420.57 493.268C416.684 487.754 414.216 481.383 410.165 475.872C402.581 465.553 394.166 460.267 383.594 453.614C380.924 451.934 377.675 449.121 374.523 448.657C371.111 445.523 366.719 434.558 362.261 433.525Q360.731 431.349 358.993 429.336C355.271 425.032 350.191 421.855 344.403 421.544C337.668 421.182 331.725 424.09 326.88 428.558C313.856 436.682 304.176 450.846 300.702 465.747Q300.228 467.802 299.819 469.871C294.244 467.513 267.993 476.647 261.569 479.275C257.754 480.835 253.559 482.445 250.067 484.649C250.033 484.073 250.003 483.512 250.013 482.935C250.418 458.217 261.72 432.563 278.649 414.692C282.736 410.379 287.858 407.223 292.06 403.053L292.374 402.735Z"/>
	<path fill="#FEE986" transform="matrix(1.01855 0 0 1.01855 6.10352e-05 0)" d="M239.525 386.227C264.709 380.369 290.54 375.307 316.499 375.335C320.43 375.339 326.118 374.987 329.624 376.971C298.792 377.526 272.657 386.896 250.918 409.43C231.06 430.013 220.622 454.864 221.126 483.627C221.642 513.059 234.184 540.474 255.314 560.802Q256.348 561.784 257.406 562.741Q258.464 563.698 259.545 564.629Q260.626 565.56 261.729 566.464Q262.832 567.369 263.956 568.246Q265.081 569.124 266.226 569.974Q267.372 570.824 268.537 571.646Q269.703 572.468 270.888 573.262Q272.074 574.055 273.278 574.82Q274.482 575.585 275.704 576.32Q276.926 577.056 278.166 577.761Q279.406 578.467 280.662 579.142Q281.918 579.818 283.191 580.462Q284.463 581.107 285.751 581.721Q287.038 582.335 288.341 582.917Q289.643 583.5 290.958 584.05Q292.274 584.601 293.603 585.12Q294.932 585.639 296.273 586.125Q297.614 586.612 298.966 587.065Q300.318 587.519 301.681 587.94Q303.044 588.361 304.416 588.749Q305.789 589.137 307.171 589.492Q308.552 589.846 309.942 590.167Q311.332 590.488 312.729 590.776Q314.126 591.063 315.53 591.316Q316.934 591.57 318.343 591.789Q319.753 592.009 321.167 592.194Q322.582 592.379 324 592.53Q325.418 592.681 326.84 592.797Q328.262 592.914 329.686 592.996Q331.11 593.078 332.535 593.126Q333.961 593.173 335.387 593.186Q336.814 593.199 338.24 593.178C354.976 592.816 369.962 589.901 385.806 584.505C388.523 583.58 392.841 582.601 395.013 580.731C395.144 580.618 395.245 580.475 395.361 580.347C400.712 577.961 406.188 576.002 411.431 573.348C417.997 570.024 436.689 559.506 438.858 552.798C440.34 551.697 441.183 548.111 441.865 546.359L442.445 546.306C443.355 543.898 446.439 528.837 446.892 528.494L447.169 529.046C447.778 530.245 447.983 530.895 449.112 531.692C451.49 531.635 453.838 529.883 456.036 530.559C456.913 531.587 457.211 532.106 457.157 533.498C457.057 536.052 455.714 539.005 454.774 541.369C448.954 556.006 438.681 569.287 426.582 579.248C400.445 600.765 359.958 614.015 326.03 610.512C311.224 608.984 293.728 605.333 280.109 599.197C278.707 598.565 277.551 597.557 276.16 596.942C273.215 595.64 270.184 595.034 267.475 593.211C265.735 592.04 263.102 590.387 261.043 589.978L260.754 590.288C249.783 585.113 239.536 575.084 231.279 566.304C207.53 541.051 197.069 510.087 198.266 475.677C199.475 440.874 212.772 410.355 238.28 386.635L239.525 386.227Z"/>
	<path fill="#FEE986" transform="matrix(1.01855 0 0 1.01855 6.10352e-05 0)" d="M326.88 428.558C331.725 424.09 337.668 421.182 344.403 421.544C350.191 421.855 355.271 425.032 358.993 429.336Q360.731 431.349 362.261 433.525C366.719 434.558 371.111 445.523 374.523 448.657C377.675 449.121 380.924 451.934 383.594 453.614C394.166 460.267 402.581 465.553 410.165 475.872C414.216 481.383 416.684 487.754 420.57 493.268C419.564 514.826 413.64 533.511 399.251 549.878C385.11 565.963 367.454 575.227 345.908 576.605C321.305 578.178 299.335 570.332 280.927 553.949C260.822 536.055 251.396 511.599 249.956 485.105L250.067 484.649C253.559 482.445 257.754 480.835 261.569 479.275C267.993 476.647 294.244 467.513 299.819 469.871Q300.228 467.802 300.702 465.747C304.176 450.846 313.856 436.682 326.88 428.558Z"/>
	<path fill="#462114" transform="matrix(1.01855 0 0 1.01855 6.10352e-05 0)" d="M326.88 428.558C331.725 424.09 337.668 421.182 344.403 421.544C350.191 421.855 355.271 425.032 358.993 429.336Q360.731 431.349 362.261 433.525C366.719 434.558 371.111 445.523 374.523 448.657C383.647 466.614 386.185 487.478 379.855 506.814C375.802 519.194 367.355 531.258 355.477 537.189Q354.699 537.568 353.904 537.909Q353.108 538.25 352.297 538.551Q351.486 538.852 350.661 539.114Q349.836 539.375 348.999 539.596Q348.162 539.816 347.316 539.995Q346.469 540.175 345.615 540.312Q344.761 540.45 343.901 540.546Q343.04 540.641 342.177 540.695Q341.313 540.748 340.448 540.759Q339.582 540.77 338.718 540.739Q337.853 540.707 336.991 540.634Q336.128 540.56 335.271 540.444Q334.413 540.328 333.562 540.171Q332.712 540.013 331.869 539.814Q331.027 539.615 330.196 539.375Q329.365 539.135 328.546 538.854C317.312 535.054 309.78 526.495 304.731 516.051C297.796 501.702 296.998 485.383 299.819 469.871Q300.228 467.802 300.702 465.747C304.176 450.846 313.856 436.682 326.88 428.558Z"/>
	<path fill="#462114" transform="matrix(1.01855 0 0 1.01855 6.10352e-05 0)" d="M363.882 437.851C366.41 439.517 367.705 442.267 368.333 445.165C369.829 452.074 367.94 461.094 364.12 466.921C360.136 473 353.548 477.602 346.36 478.845C339.652 480.004 332.512 478.267 326.965 474.344C321.325 470.354 317.619 463.768 316.518 457.007C315.482 450.639 316.807 446.565 319.756 441.129L320.277 441.896L320.327 441.665C320.405 442.387 320.39 443.339 320.609 444.017C321.435 450.073 323.612 455.643 328.054 459.974Q328.439 460.35 328.842 460.707Q329.245 461.063 329.666 461.399Q330.086 461.734 330.523 462.049Q330.96 462.363 331.412 462.654Q331.865 462.946 332.331 463.215Q332.797 463.483 333.277 463.728Q333.756 463.973 334.247 464.193Q334.738 464.414 335.239 464.609Q335.741 464.804 336.251 464.974Q336.762 465.144 337.28 465.288Q337.799 465.432 338.324 465.55Q338.849 465.668 339.379 465.759Q339.91 465.85 340.444 465.914Q340.978 465.978 341.515 466.016Q342.052 466.053 342.59 466.063Q343.128 466.074 343.666 466.057C349.405 465.863 354.546 463.291 358.313 458.982C363.798 452.709 364.368 445.744 363.882 437.851Z"/>
	<path fill="#86D7C4" transform="matrix(1.01855 0 0 1.01855 6.10352e-05 0)" d="M326.88 428.558C331.725 424.09 337.668 421.182 344.403 421.544C350.191 421.855 355.271 425.032 358.993 429.336Q360.731 431.349 362.261 433.525C362.732 434.821 363.18 436.702 363.882 437.851C364.368 445.744 363.798 452.709 358.313 458.982C354.546 463.291 349.405 465.863 343.666 466.057Q343.128 466.074 342.59 466.063Q342.052 466.053 341.515 466.016Q340.978 465.978 340.444 465.914Q339.91 465.85 339.379 465.759Q338.849 465.668 338.324 465.55Q337.799 465.432 337.28 465.288Q336.762 465.144 336.251 464.974Q335.741 464.804 335.239 464.609Q334.738 464.414 334.247 464.193Q333.756 463.973 333.277 463.728Q332.797 463.483 332.331 463.215Q331.865 462.946 331.412 462.654Q330.96 462.363 330.523 462.049Q330.086 461.734 329.666 461.399Q329.245 461.063 328.842 460.707Q328.439 460.35 328.054 459.974C323.612 455.643 321.435 450.073 320.609 444.017C321.161 437.703 323.314 433.66 326.88 428.558Z"/>
	<path fill="#FEE986" transform="matrix(1.01855 0 0 1.01855 6.10352e-05 0)" d="M696.123 612.013C674.744 612.055 654.663 609.062 634.666 601.264C612.314 592.549 593.308 579.411 575.378 563.651C569.443 558.433 562.121 552.405 559.025 544.941C556.051 537.769 555.945 529.182 555.771 521.529C555.186 495.926 558.206 471.894 567.948 448.04C582.786 411.707 609.446 381.53 646.083 366.303Q647.543 365.686 649.019 365.106Q650.494 364.526 651.984 363.983Q653.474 363.44 654.976 362.935Q656.479 362.43 657.994 361.962Q659.509 361.495 661.035 361.066Q662.561 360.637 664.098 360.246Q665.634 359.855 667.18 359.503Q668.726 359.151 670.28 358.838Q671.834 358.525 673.396 358.251Q674.957 357.977 676.525 357.742Q678.093 357.507 679.667 357.312Q681.24 357.117 682.818 356.961Q684.395 356.805 685.977 356.689Q687.558 356.573 689.141 356.497Q690.725 356.421 692.31 356.384Q693.895 356.348 695.48 356.351Q697.066 356.354 698.651 356.397Q700.235 356.44 701.819 356.523Q703.402 356.606 704.982 356.729Q706.563 356.851 708.14 357.013Q709.717 357.176 711.29 357.377Q712.862 357.579 714.429 357.82Q715.996 358.061 717.557 358.342Q719.117 358.622 720.67 358.942Q722.223 359.261 723.767 359.62Q725.312 359.978 726.846 360.375Q728.381 360.772 729.906 361.208Q731.43 361.643 732.943 362.117Q734.456 362.591 735.957 363.102Q737.457 363.614 738.945 364.163Q740.432 364.712 741.905 365.298Q743.378 365.884 744.836 366.507Q746.254 367.11 747.657 367.749Q749.06 368.387 750.447 369.06Q751.834 369.733 753.203 370.44Q754.573 371.147 755.925 371.888Q757.276 372.629 758.609 373.403Q759.942 374.178 761.255 374.985Q762.569 375.792 763.862 376.631Q765.154 377.47 766.426 378.341Q767.698 379.213 768.947 380.115Q770.197 381.018 771.424 381.951Q772.65 382.884 773.854 383.847Q775.057 384.811 776.236 385.804Q777.415 386.796 778.569 387.818Q779.723 388.84 780.851 389.89Q781.98 390.94 783.082 392.018Q784.184 393.096 785.258 394.201Q786.333 395.306 787.38 396.437Q788.428 397.568 789.446 398.725Q790.465 399.881 791.455 401.063Q792.445 402.245 793.405 403.451Q794.365 404.656 795.295 405.886Q796.225 407.115 797.124 408.367Q798.023 409.619 798.891 410.893Q799.758 412.167 800.594 413.462Q801.43 414.757 802.234 416.073Q803.037 417.388 803.808 418.723Q804.578 420.058 805.316 421.411Q806.053 422.765 806.757 424.136Q807.46 425.508 808.129 426.897Q808.799 428.285 809.433 429.69Q810.068 431.094 810.667 432.515Q811.267 433.935 811.831 435.369C822.232 461.194 823.929 494.231 815.899 521.013C813.194 530.038 808.818 538.326 805.139 546.958C800.608 553.578 796.285 560.456 791.035 566.537C771.663 588.974 743.524 604.404 714.493 609.879C708.505 611.009 702.218 612.077 696.123 612.013Z"/>
	<path fill="#462114" transform="matrix(1.01855 0 0 1.01855 6.10352e-05 0)" d="M580.635 537.113L580.22 537.569C578.68 533.366 578.314 528.403 577.883 523.973C575.537 499.89 579.669 473.396 589.779 451.396C603.613 421.292 627.117 396.284 658.659 384.815C685.205 375.163 713.775 376.003 739.448 387.985Q740.641 388.545 741.819 389.135Q742.998 389.725 744.162 390.343Q745.325 390.962 746.473 391.609Q747.621 392.256 748.753 392.932Q749.885 393.607 750.999 394.31Q752.114 395.014 753.21 395.744Q754.307 396.475 755.386 397.233Q756.464 397.99 757.523 398.774Q758.582 399.558 759.622 400.368Q760.661 401.178 761.681 402.014Q762.7 402.849 763.698 403.71Q764.696 404.57 765.673 405.455Q766.649 406.34 767.604 407.249Q768.558 408.158 769.49 409.09Q770.421 410.023 771.329 410.977Q772.237 411.932 773.122 412.91Q774.006 413.887 774.866 414.886Q775.725 415.884 776.56 416.904Q777.395 417.924 778.204 418.964Q779.014 420.004 779.797 421.064Q780.58 422.124 781.337 423.203Q782.094 424.281 782.824 425.379Q783.554 426.476 784.256 427.591Q784.959 428.706 785.633 429.838Q786.308 430.97 786.954 432.119Q787.601 433.267 788.219 434.431Q788.836 435.595 789.425 436.774Q790.014 437.953 790.573 439.147Q791.133 440.34 791.663 441.547Q792.192 442.753 792.692 443.973Q793.192 445.192 793.661 446.424Q794.13 447.655 794.569 448.898C803.865 475.036 802.303 505.779 790.187 530.734C777.166 557.555 752.754 577.871 724.682 587.423C691.32 598.775 651.939 595.005 620.439 579.341C619.242 578.746 618.134 578.213 617.106 577.337Q623.884 579.586 630.747 581.562C668.314 592.174 705.581 591.816 740.277 572.228C762.536 559.66 780.282 539.07 787.08 514.214Q787.372 513.143 787.638 512.066Q787.904 510.988 788.143 509.904Q788.382 508.821 788.594 507.731Q788.807 506.642 788.993 505.548Q789.178 504.453 789.337 503.355Q789.496 502.257 789.627 501.155Q789.759 500.052 789.864 498.948Q789.968 497.843 790.046 496.735Q790.123 495.628 790.174 494.52Q790.224 493.411 790.247 492.301Q790.27 491.192 790.266 490.082Q790.261 488.972 790.23 487.863Q790.199 486.753 790.14 485.645Q790.081 484.536 789.995 483.43Q789.909 482.323 789.796 481.219Q789.683 480.115 789.543 479.014Q789.403 477.913 789.236 476.816Q789.069 475.719 788.875 474.626Q788.681 473.533 788.46 472.446Q788.24 471.358 787.992 470.276Q787.745 469.194 787.471 468.118Q787.197 467.043 786.897 465.974Q786.597 464.906 786.27 463.845Q785.944 462.784 785.592 461.732Q785.239 460.679 784.861 459.636Q784.483 458.592 784.08 457.558Q783.676 456.525 783.248 455.501Q782.819 454.477 782.365 453.464Q781.911 452.451 781.433 451.45Q780.954 450.449 780.451 449.459Q779.948 448.47 779.421 447.493Q778.894 446.516 778.343 445.553C765.221 422.6 743.86 407.258 718.61 400.353C715.191 398.73 710.983 398 707.255 397.428C691.278 394.98 675.898 397.537 660.79 402.97C640.416 410.296 623.661 423.727 611.068 441.266C607.547 446.17 604.623 451.382 601.403 456.469C587.99 481.464 580.436 508.624 580.635 537.113Z"/>
	<path fill="#86D7C4" transform="matrix(1.01855 0 0 1.01855 6.10352e-05 0)" d="M718.61 400.353C743.86 407.258 765.221 422.6 778.343 445.553Q778.894 446.516 779.421 447.493Q779.948 448.47 780.451 449.459Q780.954 450.449 781.433 451.45Q781.911 452.451 782.365 453.464Q782.819 454.477 783.248 455.501Q783.676 456.525 784.08 457.558Q784.484 458.592 784.861 459.636Q785.239 460.679 785.592 461.732Q785.944 462.784 786.27 463.845Q786.597 464.906 786.897 465.974Q787.197 467.043 787.471 468.118Q787.745 469.194 787.992 470.276Q788.24 471.358 788.46 472.445Q788.681 473.533 788.875 474.626Q789.069 475.719 789.236 476.816Q789.403 477.913 789.543 479.014Q789.683 480.115 789.796 481.219Q789.909 482.323 789.995 483.43Q790.081 484.536 790.14 485.645Q790.199 486.753 790.23 487.862Q790.262 488.972 790.266 490.082Q790.27 491.192 790.247 492.301Q790.224 493.411 790.174 494.52Q790.123 495.628 790.046 496.735Q789.968 497.843 789.864 498.948Q789.759 500.052 789.627 501.155Q789.496 502.257 789.337 503.355Q789.178 504.453 788.992 505.548Q788.807 506.642 788.594 507.731Q788.382 508.821 788.143 509.904Q787.904 510.988 787.638 512.066Q787.372 513.143 787.08 514.214C780.282 539.07 762.536 559.66 740.277 572.228C705.581 591.816 668.314 592.174 630.747 581.562Q623.884 579.586 617.106 577.337C606.753 571.621 596.15 567.801 587.577 559.108C581.947 553.399 580.834 547.371 580.951 539.601C580.962 538.828 581.029 538.27 580.802 537.519C580.759 537.379 580.691 537.248 580.635 537.113C580.436 508.624 587.99 481.464 601.403 456.469C601.352 460.555 599.452 464.814 598.628 468.836C597.114 476.222 597.445 484.471 597.945 491.958C600.836 512.099 608.503 531.435 622.192 546.762C637.849 564.294 660.683 575.773 684.153 577.102C704.768 578.27 726.818 570.806 742.241 556.992C765.401 536.249 772 513.609 773.558 483.511C772.022 452.048 757.367 424.145 730.399 407.202C727.908 405.637 719.714 402.598 718.61 400.353Z"/>
	<path fill="#FEE986" transform="matrix(1.01855 0 0 1.01855 6.10352e-05 0)" d="M601.403 456.469C604.623 451.382 607.547 446.17 611.068 441.266C623.661 423.727 640.416 410.296 660.79 402.97C675.898 397.537 691.278 394.98 707.255 397.428C710.983 398 715.191 398.73 718.61 400.353C719.714 402.598 727.908 405.637 730.399 407.202C757.367 424.145 772.022 452.048 773.558 483.511C769.086 482.489 764.641 479.889 760.435 478.044C748.466 472.795 737.384 471.265 724.399 472.087C722.753 463.09 719.449 450.792 712.973 443.97L712.221 444.346C712.513 441.897 712.104 439.758 711.24 437.451C709.144 431.861 704.337 427.553 698.985 425.131C691.512 421.75 686.279 423.055 679.007 425.736C671.014 426.263 664.131 431.08 659.026 436.972C653.585 443.251 650.302 450.707 647.421 458.417C631.499 459.844 613.472 473.095 603.511 484.981Q600.675 488.427 597.945 491.958C597.445 484.471 597.114 476.222 598.628 468.836C599.452 464.814 601.352 460.555 601.403 456.469Z"/>
	<path fill="#FEE986" transform="matrix(1.01855 0 0 1.01855 6.10352e-05 0)" d="M679.007 425.736C686.279 423.055 691.512 421.75 698.985 425.131C704.337 427.553 709.144 431.861 711.24 437.451C712.104 439.758 712.513 441.897 712.221 444.346L712.973 443.97C719.449 450.792 722.753 463.09 724.399 472.087C737.384 471.265 748.466 472.795 760.435 478.044C764.641 479.889 769.086 482.489 773.558 483.511C772 513.609 765.401 536.249 742.241 556.992C726.818 570.806 704.768 578.27 684.153 577.102C660.683 575.773 637.849 564.294 622.192 546.762C608.503 531.435 600.836 512.099 597.945 491.958Q600.675 488.427 603.511 484.981C613.472 473.095 631.499 459.844 647.421 458.417C650.302 450.707 653.585 443.251 659.026 436.972C664.131 431.08 671.014 426.263 679.007 425.736Z"/>
	<path fill="#462114" transform="matrix(1.01855 0 0 1.01855 6.10352e-05 0)" d="M647.592 511.253C648.807 509.127 649.158 506.143 649.742 503.775C652.021 494.52 655.637 487.367 663.991 482.256C672.393 477.115 681.59 476.536 690.987 478.939C699.667 481.159 709.752 485.731 714.976 493.326C717.279 496.675 718.756 500.385 720.866 503.81L721.357 504.592C717.561 518.138 709.539 530.762 697.036 537.759C690.434 541.454 682.937 543.229 675.479 541.168C664.428 538.114 655.92 527.677 650.602 518.039C649.478 516.002 648.139 513.52 647.592 511.253Z"/>
	<path fill="#462114" transform="matrix(1.01855 0 0 1.01855 6.10352e-05 0)" d="M679.007 425.736C686.279 423.055 691.512 421.75 698.985 425.131C704.337 427.553 709.144 431.861 711.24 437.451C712.104 439.758 712.513 441.897 712.221 444.346L712.973 443.97C719.449 450.792 722.753 463.09 724.399 472.087C725.601 483.189 724.776 493.917 721.357 504.592L720.866 503.81C718.756 500.385 717.279 496.675 714.976 493.326C709.752 485.731 699.667 481.159 690.987 478.939C681.59 476.536 672.393 477.115 663.991 482.256C655.637 487.367 652.021 494.52 649.742 503.775C649.158 506.143 648.807 509.127 647.592 511.253C641.473 494.669 642.153 475.106 647.421 458.417C650.302 450.707 653.585 443.251 659.026 436.972C664.131 431.08 671.014 426.263 679.007 425.736Z"/>
	<path fill="#86D7C4" transform="matrix(1.01855 0 0 1.01855 6.10352e-05 0)" d="M679.007 425.736C686.279 423.055 691.512 421.75 698.985 425.131C704.337 427.553 709.144 431.861 711.24 437.451C712.104 439.758 712.513 441.897 712.221 444.346C712.208 444.562 712.199 444.779 712.183 444.995C711.743 450.774 708.925 456.942 704.472 460.678C699.753 464.637 693.137 466.277 687.072 465.534Q686.533 465.468 685.997 465.375Q685.462 465.281 684.932 465.161Q684.402 465.041 683.879 464.894Q683.356 464.748 682.841 464.575Q682.326 464.402 681.82 464.204Q681.314 464.005 680.819 463.781Q680.324 463.557 679.841 463.309Q679.358 463.06 678.888 462.788Q678.417 462.515 677.962 462.22Q677.506 461.924 677.066 461.605Q676.626 461.287 676.202 460.947Q675.778 460.606 675.372 460.245Q674.966 459.884 674.579 459.503Q674.192 459.122 673.825 458.722Q673.457 458.321 673.11 457.903Q672.763 457.485 672.438 457.05C668.963 452.479 667.215 446.729 668.187 441.012C669.349 434.172 673.649 429.664 679.007 425.736Z"/>
</svg>
