<?xml version="1.0" encoding="utf-8" ?>
<svg xmlns="http://www.w3.org/2000/svg" xmlns:xlink="http://www.w3.org/1999/xlink" width="1024" height="1024">
	<path d="M0 0L1024 0L1024 1024L0 1024L0 0Z"/>
	<path fill="white" d="M928.037 46.207C930.412 46.1889 932.757 46.149 935.052 46.8694C941.412 48.8649 945.319 54.4906 948.105 60.2046C951.25 66.6523 953.022 73.7405 954.748 80.6749C965.671 124.565 961.799 171.625 954.575 215.761C953.11 224.707 951.872 233.746 949.923 242.6C944.687 266.378 937.286 290.162 928.426 312.838C923.39 325.728 917.804 338.595 911.291 350.81C906.641 359.533 900.355 368.023 897.144 377.386C888.555 402.435 899.675 423.011 911.158 444.548C914.65 451.098 917.83 457.751 921.047 464.438C953.199 458.947 990.113 466.648 1018.72 481.726L1017.71 488.23C984.228 477.5 960.368 477.937 926.115 482.442C929.088 497.901 934.303 511.042 934.936 527.158L928.056 527.483C926.063 509.478 922.137 493.627 915.546 476.696C929.788 475.286 943.803 473.481 958.138 473.075C966.409 472.84 974.64 473.588 982.909 473.514C957.195 468.487 940.748 466.048 914.135 469.826Q909.507 470.513 904.904 471.349Q900.301 472.185 895.727 473.17Q891.153 474.155 886.614 475.286Q882.074 476.418 877.573 477.696Q873.073 478.974 868.616 480.397Q864.159 481.819 859.75 483.385Q855.341 484.951 850.985 486.659Q846.629 488.367 842.331 490.214Q838.033 492.062 833.796 494.047Q829.56 496.032 825.39 498.154Q821.22 500.275 817.121 502.53Q813.021 504.785 808.997 507.171Q804.973 509.557 801.028 512.072Q797.082 514.587 793.221 517.229Q789.359 519.87 785.585 522.634Q781.81 525.399 778.127 528.284C768.526 535.828 757.742 545.083 750.37 554.877C757.811 548.252 765.286 541.576 773.246 535.573Q776.905 532.849 780.643 530.234Q784.38 527.619 788.192 525.114Q792.005 522.609 795.889 520.217Q799.773 517.825 803.726 515.548Q807.678 513.271 811.696 511.11Q815.713 508.95 819.792 506.908Q823.872 504.866 828.009 502.945Q832.146 501.023 836.338 499.224Q840.529 497.424 844.772 495.749Q849.015 494.073 853.304 492.522Q857.594 490.971 861.928 489.546Q866.261 488.122 870.635 486.825Q875.008 485.528 879.417 484.36Q883.827 483.191 888.269 482.153Q892.71 481.114 897.181 480.206Q901.651 479.298 906.146 478.521C911.55 493.545 916.48 509.23 917.672 525.225C873.743 523.371 824.092 537.314 789.141 564.339C802.693 557.529 816.311 551.023 830.65 546.004C861.676 535.145 911.809 524.822 943.811 534.423C972.933 543.16 1002.21 564.603 1016.83 591.584C995.139 566.376 967.983 549.438 936.069 540.287C936.879 554.184 934.525 584.959 929.539 597.857C953.504 614.672 975.067 640.265 988.373 666.307C991.938 673.286 994.673 680.582 997.306 687.949C977.319 653.573 961.522 635.021 926.27 614.604C924.159 620.932 922.797 627.566 920.89 633.972C918.777 641.068 916.012 647.96 913.15 654.783C877.656 739.394 809.897 825.322 739.927 884.337C722.929 898.674 705.23 911.607 686.686 923.853Q667.969 935.956 648.14 946.135C585.397 979.091 524.824 990.761 454.975 976.4C430.83 971.436 407.287 962.232 385.205 951.404C297.728 908.508 217.677 829.183 164.329 748.245Q159.137 740.649 154.211 732.878Q149.286 725.106 144.632 717.169Q139.978 709.232 135.602 701.139Q131.225 693.045 127.132 684.805Q123.038 676.565 119.232 668.188Q115.426 659.812 111.913 651.308Q108.399 642.804 105.182 634.184Q101.964 625.564 99.0473 616.838C64.2586 628.288 43.4434 658.43 25.3361 688.101C35.7595 654.064 65.2406 618.531 94.6969 599.13C90.051 579.93 88.3578 561.816 87.963 542.093C55.5311 547.08 26.052 569.369 5.00996 593.51C14.4959 574.383 35.724 556.061 54.1364 545.859C66.4527 539.035 81.8937 533.773 95.9304 532.001C130.725 527.607 177.418 538.951 209.141 552.588C214.392 554.845 219.623 557.297 224.57 560.161C227.872 562.072 236.962 568.949 239.536 569.677C232.088 562.697 223.249 557.201 214.395 552.196C181.021 533.327 144.876 525.323 106.721 525.635C107.843 510.167 111.976 492.028 118.464 477.885Q131.372 479.829 144.028 483.028Q156.684 486.226 168.966 490.648C192.73 499.283 225.333 516.703 245.608 532.258Q255.261 539.747 264.16 548.118C267.652 551.348 271.115 555.058 274.917 557.895L275.019 557.588C270.673 552.242 265.173 547.299 260.221 542.482C230.079 513.167 193.355 490.024 152.664 478.73C121.647 470.121 89.5306 465.146 57.4908 470.195C51.7556 471.098 44.9471 471.874 39.838 474.761C61.4456 470.911 86.4041 473.412 107.926 477.072C101.71 493.498 99.0525 509.339 96.356 526.562C93.9723 526.914 91.5309 526.994 89.1269 527.154C89.7727 512.196 93.2174 496.159 97.9448 481.956C75.9168 478.659 50.7451 477.544 28.8163 481.739C20.7328 483.286 13.1051 485.753 5.38132 488.518L4.54895 482.223C36.7546 463.063 67.971 462.281 103.946 464.711C107.149 458.081 109.919 451.238 113.224 444.656C120.531 430.101 129.18 417.638 129.954 400.744C130.317 392.825 128.989 384.329 126.289 376.878C122.384 366.098 115.055 356.13 109.787 345.915C100.68 328.254 92.988 309.172 86.82 290.285C75.52 255.681 68.4391 218.676 65.1176 182.455C61.9606 148.028 61.4695 110.578 69.7889 76.7896C71.7487 68.8301 74.3762 59.4308 79.878 53.1038C83.6471 48.7694 88.3023 46.9414 93.9544 46.6924C104.232 46.2397 115.99 49.0842 126.062 51.0728Q131.7 52.244 137.306 53.5607Q142.911 54.8774 148.481 56.3386Q154.051 57.7999 159.581 59.4047Q165.111 61.0095 170.598 62.7568Q176.085 64.5041 181.525 66.3928Q186.965 68.2814 192.354 70.3102Q197.743 72.3389 203.078 74.5063Q208.412 76.6738 213.689 78.9785Q218.966 81.2832 224.182 83.7236Q229.397 86.164 234.548 88.7385Q239.699 91.313 244.781 94.0199Q249.864 96.7268 254.874 99.5643Q259.885 102.402 264.821 105.368Q269.756 108.334 274.614 111.427Q279.471 114.519 284.247 117.737Q289.022 120.954 293.713 124.294Q312.626 138.006 329.644 154.009C335.141 159.25 340.06 165.047 345.66 170.183Q350.71 168.703 355.786 167.314Q360.861 165.924 365.961 164.626Q371.061 163.329 376.183 162.122Q381.305 160.916 386.448 159.802Q391.591 158.688 396.753 157.667Q401.916 156.645 407.095 155.716Q412.275 154.788 417.471 153.952Q422.666 153.116 427.876 152.374Q433.086 151.632 438.308 150.984Q443.53 150.335 448.763 149.78Q453.996 149.226 459.238 148.765Q464.48 148.304 469.73 147.938Q474.98 147.571 480.235 147.299Q485.49 147.027 490.75 146.849Q496.009 146.671 501.271 146.588Q506.532 146.504 511.794 146.515Q517.057 146.526 522.318 146.632Q527.579 146.738 532.838 146.937Q538.096 147.137 543.351 147.432Q548.605 147.726 553.853 148.115Q559.101 148.503 564.341 148.986Q569.581 149.469 574.811 150.045Q580.042 150.622 585.262 151.292Q590.481 151.963 595.688 152.727Q600.894 153.491 606.086 154.348Q611.278 155.206 616.454 156.156Q621.63 157.107 626.788 158.15Q631.946 159.193 637.084 160.329Q642.222 161.464 647.339 162.692Q652.456 163.92 657.551 165.239Q662.645 166.559 667.715 167.969Q672.784 169.38 677.828 170.881C678.36 170.159 678.914 169.477 679.499 168.796C687.288 159.732 697.286 151.773 706.402 144.046Q711.148 140.014 716.009 136.121Q720.869 132.228 725.84 128.477Q730.811 124.726 735.888 121.12Q740.965 117.514 746.144 114.056Q751.323 110.598 756.599 107.291Q761.876 103.984 767.246 100.83Q772.616 97.6769 778.074 94.6797Q783.533 91.6825 789.076 88.8441Q794.619 86.0058 800.241 83.3285Q805.864 80.6513 811.561 78.1374Q817.258 75.6235 823.026 73.2751Q828.793 70.9267 834.626 68.7458Q840.459 66.5648 846.353 64.5531Q852.246 62.5414 858.195 60.7006Q864.144 58.8598 870.144 57.1914Q876.144 55.5231 882.189 54.0286C897.177 50.3885 912.623 47.2358 928.037 46.207Z"/>
	<path d="M918.905 535.883L928.006 536.837C930.139 554.695 927.058 574.932 923.137 592.382L922.453 593.139C919.823 591.921 917.44 589.82 915.11 588.101C919.011 571.036 919.266 553.293 918.905 535.883Z"/>
	<path d="M96.7194 536.21C99.5631 536.4 102.446 536.385 105.297 536.448C105.162 548.013 105.171 559.601 106.561 571.104C107.315 577.34 108.82 583.465 109.616 589.71C109.129 590.964 108.727 590.851 107.577 591.446L101.758 594.622C97.7519 576.43 94.221 554.782 96.7194 536.21Z"/>
	<path d="M927.045 54.7078C929.26 54.4957 931.432 54.6476 933.503 55.5157C937.926 57.3693 940.364 62.2327 941.997 66.4595C966.488 129.863 945.882 246.413 921.168 308.895C915.231 323.905 908.199 338.771 900.573 352.993C897.178 359.324 892.589 365.181 889.716 371.761C886.946 378.104 886.073 385.815 885.945 392.671C885.524 415.339 895.082 431.302 905.208 450.623C907.787 455.545 910.599 460.542 912.543 465.754L912.787 466.419L904.163 468.526C900.219 462.818 897.22 455.856 894.034 449.672C883.155 428.558 874.36 410.343 876.875 385.801C878.712 367.872 889.8 353.935 897.66 338.331C902.772 328.183 907.318 317.456 911.625 306.94C928.099 266.711 941.215 201.807 943.341 158.281C944.64 131.684 942.733 104.394 935.876 78.5933C934.811 74.5891 933.344 67.6868 930.249 64.7598C928.863 63.45 927.206 63.4706 925.407 63.5522C920.948 63.7546 916.379 64.9514 911.991 65.7484C899.853 67.9526 887.843 70.4822 875.943 73.7569C818.325 89.6124 760.886 120.482 715.471 159.315C696.094 175.883 678.288 194.487 661.222 213.41C665.798 204.751 671.329 196.479 676.646 188.256C607.716 167.66 533.364 159.032 461.64 165.88C422.673 169.601 384.193 177.646 346.314 187.3C352.069 197.664 359.016 207.323 364.376 217.939C360.313 213.807 356.598 209.244 352.741 204.913C342.099 192.965 331.562 180.764 320.184 169.511C279.196 128.975 221.504 97.8746 167.087 79.9088C155.569 76.1854 102.442 61.1986 93.3504 64.4389C92.0384 64.9066 91.2471 66.1518 90.6501 67.3526C87.0556 74.582 85.9337 84.7325 84.4885 92.6576C72.6444 157.606 87.8392 244.228 111.595 305.475C116.39 317.836 121.597 329.893 127.7 341.675C133.211 352.317 140.116 362.533 143.687 374.055C152.749 403.298 145.162 421.715 131.786 447.324C128.087 454.406 124.639 461.616 120.89 468.672C117.724 468.246 114.562 467.653 111.408 467.142C119.136 445.726 135.553 427.924 137.823 404.666C138.701 395.663 137.722 385.876 134.948 377.26C131.191 365.592 123.879 354.78 118.284 343.909C109.239 326.336 101.003 307.317 95.1327 288.432C81.3103 243.97 73.1674 199.633 71.8128 153.034C71.2589 133.98 71.9762 71.3455 85.563 57.7382C88.186 55.1112 91.524 54.794 95.0744 54.883C111.149 55.286 132.885 60.8948 148.468 65.1275C206.097 80.7806 262.052 107.279 307.956 145.864C320.209 156.164 331.489 167.409 342.423 179.082C430.941 154.033 518.522 147.296 609.27 163.288Q628.712 166.582 647.853 171.32C658.905 174.129 669.885 177.61 681.109 179.652C691.319 169.355 701.788 158.912 712.942 149.643C770.871 101.499 851.418 61.6768 927.045 54.7078Z"/>
	<path d="M912.181 96.107L912.615 96.1349C912.857 96.3501 913.159 96.5128 913.342 96.7805C913.882 97.5709 922.827 137.689 923.439 141.075Q924.613 147.686 925.189 154.376C929.958 207.238 917.466 259.122 894.299 306.502C886.486 322.482 877.816 337.962 866.363 351.66C854.02 323.241 834.562 298.798 811.286 278.628C787.477 258.565 755.078 243.85 723.956 240.28C727.422 232.681 732.293 225.171 736.97 218.257C770.641 168.493 826.471 126.371 882.454 105.312C892.102 101.683 902.032 98.0553 912.181 96.107Z"/>
	<path d="M110.33 95.292C118.298 97.9838 126.46 100.079 134.45 102.71Q148.933 107.639 162.888 113.908C206.647 133.46 246.388 166.431 276.712 203.291Q291.29 221.351 303.749 240.933C270.097 240.603 243.517 254.942 218.022 275.358C192.432 297.021 175.311 320.288 158.353 348.969C151.387 341.164 145.542 332.723 140.182 323.765C116.903 284.866 99.9078 235.564 97.7918 190.013C97.2266 177.846 98.0317 165.162 99.3392 153.046C100.472 142.546 103.375 132.779 105.33 122.476C107.045 113.435 108.083 104.225 110.33 95.292Z"/>
	<path d="M674.194 259.701C695.395 257.741 718.137 266.686 734.705 279.503C763.508 301.785 781.4 337.31 785.88 373.034C790.646 411.048 781.621 453.424 757.807 483.867C740.05 506.567 716.869 521.864 687.967 525.425C663.023 526.142 641.275 519.118 621.992 503.073C593.327 479.22 578.043 440.731 574.91 404.251C571.532 364.923 582.509 324.836 608.239 294.495C625.099 274.615 648.142 261.948 674.194 259.701Z"/>
	<path fill="white" d="M674.12 269.693C674.287 269.67 674.454 269.641 674.623 269.625C695.219 267.655 715.699 276.8 731.4 289.498C756.74 309.993 773.029 344.444 776.451 376.459C780.315 412.601 771.496 451.019 748.309 479.566C732.433 499.111 712.529 512.645 687.122 515.26C686.643 515.348 686.564 515.371 686.005 515.421C666.035 517.186 645.9 509.551 630.555 497.114C602.93 474.724 588.454 440.482 584.826 405.726C581.108 370.117 589.988 332.453 612.832 304.35C628.981 284.484 648.47 272.42 674.12 269.693Z"/>
	<path d="M669.34 346.679Q670.812 346.528 672.289 346.445Q673.766 346.363 675.245 346.351Q676.724 346.338 678.202 346.395Q679.68 346.452 681.154 346.579Q682.628 346.705 684.094 346.901Q685.561 347.097 687.016 347.361Q688.471 347.625 689.913 347.958Q691.354 348.291 692.778 348.691Q694.203 349.091 695.606 349.557Q697.01 350.024 698.39 350.556Q699.771 351.088 701.124 351.684Q702.478 352.281 703.802 352.94Q705.126 353.599 706.418 354.32Q707.71 355.041 708.966 355.822Q710.222 356.603 711.44 357.442Q712.659 358.282 713.836 359.177C728.197 369.949 737.24 386.92 739.743 404.573C742.299 422.6 736.678 441.096 725.765 455.52C715.31 469.339 700.215 477.984 683.121 480.4Q681.59 480.586 680.052 480.696Q678.514 480.807 676.972 480.842Q675.431 480.877 673.889 480.836Q672.348 480.796 670.81 480.679Q669.272 480.563 667.742 480.371Q666.212 480.18 664.693 479.913Q663.174 479.646 661.67 479.306Q660.166 478.965 658.681 478.551Q657.195 478.137 655.732 477.65Q654.269 477.164 652.831 476.606Q651.393 476.048 649.985 475.421Q648.576 474.793 647.2 474.097Q645.824 473.401 644.484 472.639Q643.143 471.876 641.842 471.048Q640.541 470.221 639.282 469.33Q638.023 468.44 636.809 467.489C622.575 456.556 613.582 441.517 611.309 423.694C608.967 405.326 613.663 386.08 625.088 371.377C636.341 356.898 651.259 349.046 669.34 346.679Z"/>
	<path fill="white" d="M669.9 352.184C682.282 350.687 693.499 353.753 704.309 359.707C720.448 368.597 728.537 382.907 733.438 400.187C731.803 397.411 730.182 394.624 728.172 392.099Q727.483 391.23 726.752 390.397Q726.02 389.564 725.248 388.769Q724.475 387.974 723.664 387.219Q722.852 386.463 722.004 385.75Q721.155 385.037 720.272 384.367Q719.388 383.697 718.472 383.073Q717.556 382.448 716.61 381.871Q715.664 381.294 714.689 380.765Q713.715 380.236 712.716 379.756Q711.716 379.277 710.693 378.849Q709.671 378.42 708.628 378.044Q707.585 377.668 706.525 377.344Q705.464 377.021 704.389 376.752Q703.314 376.482 702.226 376.267Q701.139 376.052 700.042 375.892Q698.945 375.732 697.841 375.628Q696.847 375.528 695.849 375.477Q694.851 375.426 693.852 375.425Q692.853 375.424 691.855 375.473Q690.857 375.521 689.863 375.619Q688.868 375.717 687.88 375.864Q686.892 376.011 685.912 376.207Q684.932 376.403 683.964 376.647Q682.995 376.891 682.039 377.183Q681.084 377.475 680.144 377.815Q679.204 378.154 678.282 378.539Q677.36 378.924 676.459 379.355Q675.557 379.785 674.678 380.26Q673.799 380.735 672.944 381.253Q672.09 381.77 671.262 382.33Q670.434 382.889 669.635 383.489Q668.836 384.089 668.068 384.728C659.016 392.36 653.366 402.8 652.361 414.625C651.405 425.871 654.635 437.922 661.996 446.616C669.892 455.944 680.723 460.905 692.752 461.847C704.065 461.802 711.865 458.612 721.291 452.483C711.274 464.082 699.007 472.909 683.565 475.166Q682.176 475.368 680.779 475.501Q679.382 475.634 677.98 475.697Q676.578 475.761 675.175 475.755Q673.772 475.749 672.371 475.673Q670.969 475.597 669.573 475.452Q668.177 475.307 666.791 475.093Q665.404 474.879 664.029 474.596Q662.655 474.313 661.296 473.963Q659.937 473.612 658.597 473.195Q657.257 472.777 655.94 472.294Q654.622 471.81 653.331 471.262Q652.039 470.714 650.776 470.103Q649.513 469.491 648.281 468.817Q647.05 468.144 645.854 467.41Q644.658 466.677 643.499 465.885Q642.341 465.093 641.223 464.244C627.556 454.041 619.335 440.538 617.011 423.616C614.63 406.276 618.902 388.608 629.651 374.687C639.654 361.732 653.803 354.293 669.9 352.184Z"/>
	<path d="M344.537 259.216C369.106 258.816 391.407 268.897 409.119 285.657C436.352 311.427 449.197 349.366 449.979 386.25C450.815 425.637 437.359 468.387 409.73 497.065C391.852 515.623 369.845 526.113 343.96 526.547C320.919 526.754 299.794 516.948 282.883 501.722C254.202 475.899 240.044 438.2 238.151 400.264C236.258 362.326 248.372 321.991 274.128 293.688C287.138 279.391 305.3 266.552 324.251 261.789C330.948 260.106 337.67 259.559 344.537 259.216Z"/>
	<path fill="white" d="M343.813 269.216L344.633 269.164C365.862 268.033 387.462 279.135 402.748 293.1C427.577 315.783 438.858 351.185 440.282 384.011C441.866 420.518 428.759 462.096 403.773 489.06C387.891 506.199 368.114 515.865 344.723 516.709C323.983 516.925 304.892 508.361 289.484 494.738C263.917 472.132 249.965 436.825 247.942 403.252C245.72 366.383 256.858 328.12 281.674 300.356C298.213 281.853 318.864 270.652 343.813 269.216Z"/>
	<path d="M345.058 346.683C358.58 344.777 373.578 348.941 384.74 356.605Q386.089 357.547 387.39 358.554Q388.692 359.561 389.943 360.63Q391.194 361.699 392.391 362.827Q393.589 363.955 394.73 365.141Q395.872 366.326 396.955 367.565Q398.037 368.804 399.058 370.094Q400.08 371.384 401.037 372.723Q401.994 374.061 402.885 375.444Q403.777 376.827 404.6 378.252Q405.423 379.677 406.176 381.14Q406.929 382.603 407.609 384.101Q408.29 385.599 408.898 387.128Q409.505 388.657 410.038 390.214Q410.57 391.771 411.027 393.352Q411.483 394.933 411.862 396.534Q412.241 398.135 412.542 399.753Q412.862 401.516 413.095 403.293Q413.327 405.07 413.472 406.857Q413.617 408.643 413.674 410.434Q413.73 412.225 413.699 414.017Q413.667 415.809 413.547 417.597Q413.427 419.385 413.219 421.165Q413.011 422.946 412.716 424.713Q412.421 426.481 412.039 428.232Q411.657 429.983 411.189 431.713Q410.721 433.443 410.169 435.148Q409.616 436.853 408.98 438.528Q408.345 440.204 407.627 441.846Q406.909 443.488 406.112 445.093Q405.314 446.698 404.439 448.261Q403.563 449.825 402.611 451.344Q401.659 452.862 400.634 454.332C390.268 469.162 375.202 477.799 357.606 480.946C342.493 481.997 327.933 479.148 315.609 469.916Q314.226 468.86 312.896 467.739Q311.565 466.618 310.29 465.434Q309.016 464.249 307.8 463.005Q306.584 461.761 305.429 460.459Q304.275 459.157 303.184 457.801Q302.094 456.445 301.07 455.038Q300.047 453.632 299.092 452.177Q298.138 450.722 297.255 449.223Q296.372 447.724 295.562 446.183Q294.753 444.643 294.019 443.066Q293.284 441.489 292.627 439.878Q291.97 438.267 291.391 436.626Q290.813 434.985 290.314 433.318Q289.815 431.651 289.397 429.962Q288.98 428.273 288.644 426.566Q288.309 424.858 288.056 423.137C285.495 405.152 289.543 386.481 300.663 371.983C311.888 357.348 326.862 349.002 345.058 346.683Z"/>
	<path fill="white" d="M348.211 352.202C359.273 351.725 370.537 354.144 380.04 359.92C395.352 369.227 403.915 383.974 408.143 401.012C401.771 391.696 394.984 383.833 384.268 379.507C374.728 375.655 363.687 376.163 354.275 380.196C344.13 384.542 335.585 393.199 331.533 403.466Q331.128 404.469 330.774 405.491Q330.419 406.513 330.116 407.551Q329.813 408.589 329.561 409.641Q329.31 410.693 329.111 411.756Q328.912 412.819 328.766 413.891Q328.62 414.963 328.528 416.04Q328.435 417.118 328.396 418.199Q328.357 419.28 328.372 420.361Q328.387 421.443 328.455 422.522Q328.524 423.602 328.646 424.676Q328.768 425.751 328.943 426.818Q329.118 427.886 329.346 428.943Q329.574 430 329.854 431.045Q330.134 432.09 330.466 433.119Q330.797 434.149 331.18 435.161Q331.562 436.172 331.994 437.164C336.992 448.435 346.486 456.428 357.869 460.751C367.872 464.092 377.1 463.11 387.175 460.909C376.93 469.219 368.302 474.857 354.769 475.942C340.205 477.11 326.522 472.477 315.436 463.031C301.981 451.566 294.339 435.536 292.997 417.996C291.726 401.386 297.014 383.798 308.075 371.182C318.299 359.52 332.906 353.26 348.211 352.202Z"/>
	<path d="M498.174 495.711C526.081 494.044 578.957 497.418 602.92 512.497C608.494 516.005 613.568 520.956 614.908 527.658C616.411 535.169 610.472 545.057 606.281 551.135C585.957 580.605 551.113 600.324 516.366 606.735C516.177 612.934 514.902 621.023 518.108 626.528C525.838 639.805 542.653 645.676 556.702 649.067C611.209 662.222 674.942 641.858 724.439 619.838C774.739 597.46 826.193 565.366 883.497 580.645C906.062 586.661 925.305 600.279 942.38 615.759C945.534 618.619 950.381 622.215 952.517 625.893C942.179 619.423 932.283 612.206 921.714 606.075C920.39 605.307 918.672 604.129 917.162 604.531C917.457 605.855 918.274 606.524 919.191 607.454L919.618 607.881C916.168 626.983 907.974 646.241 899.746 663.738C876.996 712.11 847.867 755.938 813.651 796.958C756.885 865.012 682.612 929.19 597.971 958.773C577.642 965.877 556.788 971.186 535.296 973.109C492.737 978.356 445.072 968.067 405.866 951.721C393.699 946.648 381.764 940.442 370.171 934.18C263.66 876.647 158.081 749.577 114.267 637.073C110.421 627.197 107.425 617.041 104.39 606.895C96.3302 610.676 88.0867 615.587 80.4892 620.24C77.5786 622.023 74.6963 624.82 71.5325 625.979C71.8976 625.349 72.2754 624.867 72.7862 624.345C104.574 591.875 157.733 569.772 203.255 579.484C225.549 584.241 253.689 599.46 274.423 609.46C321.876 632.347 383.436 654.195 436.59 652.827C458.83 652.254 486.865 646.984 502.724 629.886C509.078 623.036 507.55 615.685 507.26 607.11Q505.093 606.7 502.939 606.222Q500.785 605.745 498.648 605.202Q496.51 604.658 494.39 604.048Q492.27 603.439 490.17 602.764Q488.07 602.089 485.991 601.35Q483.913 600.61 481.859 599.807Q479.804 599.004 477.776 598.137Q475.747 597.271 473.747 596.342Q471.746 595.413 469.775 594.422Q467.804 593.432 465.864 592.381Q463.925 591.33 462.019 590.22Q460.113 589.11 458.242 587.941Q456.371 586.772 454.537 585.546Q452.704 584.32 450.909 583.037Q449.114 581.755 447.36 580.418Q445.605 579.081 443.893 577.69C433.704 569.512 410.781 545.394 409.654 531.806C409.231 526.711 411.401 522.246 414.671 518.478C430.821 499.868 475.091 497.084 498.174 495.711Z"/>
	<path fill="white" d="M504.12 505.722C528.904 504.856 573.976 507.413 595.594 520.176C599.171 522.288 603.616 525.881 604.504 530.184C605.283 533.959 602.519 538.229 600.625 541.303C583.298 569.43 551.985 587.772 520.393 595.352Q517.503 596.131 514.528 596.467C501.134 597.924 477.898 588.185 466.221 581.325C460.263 577.825 454.707 573.654 449.375 569.268C441.215 562.557 420.552 542.294 419.874 531.382C419.715 528.834 420.814 526.684 422.469 524.815C436.263 509.231 483.855 506.533 504.12 505.722Z"/>
	<path fill="white" d="M446.373 847.705C450.945 847.066 456.155 847.412 460.736 847.968C475.653 849.777 491.854 856.373 502.282 867.457C505.962 871.37 508.843 875.922 512.158 880.134C519.545 870.027 526.339 861.996 537.625 856.151Q538.458 855.718 539.302 855.307Q540.145 854.895 540.999 854.504Q541.853 854.114 542.716 853.745Q543.579 853.376 544.451 853.029Q545.323 852.681 546.204 852.356Q547.084 852.031 547.973 851.728Q548.861 851.425 549.757 851.144Q550.653 850.863 551.555 850.605Q552.458 850.347 553.367 850.111Q554.275 849.875 555.19 849.663Q556.104 849.45 557.023 849.26Q557.943 849.071 558.867 848.904Q559.79 848.737 560.718 848.594Q561.646 848.45 562.577 848.33Q563.508 848.21 564.442 848.113Q565.375 848.016 566.311 847.943Q567.247 847.87 568.184 847.82Q569.122 847.77 570.06 847.743Q570.998 847.717 571.937 847.714Q572.876 847.711 573.814 847.732Q574.753 847.752 575.691 847.796Q576.628 847.84 577.565 847.908Q578.501 847.975 579.435 848.066Q580.37 848.157 581.301 848.272Q582.233 848.386 583.162 848.524Q584.09 848.661 585.015 848.822Q585.94 848.983 586.86 849.167Q587.781 849.351 588.697 849.558Q589.612 849.765 590.522 849.995Q591.432 850.225 592.337 850.478Q593.241 850.73 594.138 851.005Q595.036 851.28 595.926 851.578C612.445 856.986 629.393 870.422 637.317 886.035C631.016 888.701 624.94 891.899 618.68 894.669C611.459 897.864 604.036 900.499 596.569 903.049L595.802 903.287Q593.069 904.139 590.319 904.936Q587.569 905.732 584.803 906.472Q582.038 907.213 579.258 907.896Q576.478 908.58 573.684 909.207Q570.891 909.834 568.085 910.405Q565.28 910.975 562.463 911.488Q559.646 912 556.82 912.456Q553.993 912.911 551.158 913.309Q548.323 913.707 545.48 914.047Q542.638 914.387 539.789 914.669Q536.94 914.951 534.085 915.175Q531.231 915.399 528.373 915.565Q525.515 915.73 522.654 915.838Q519.793 915.946 516.931 915.995Q514.068 916.044 511.205 916.035Q508.342 916.026 505.48 915.959Q502.618 915.892 499.758 915.766Q496.898 915.641 494.041 915.457Q491.184 915.274 488.331 915.032Q485.478 914.79 482.631 914.49Q479.784 914.19 476.943 913.832Q474.103 913.475 471.27 913.059Q468.438 912.644 465.614 912.171Q462.79 911.698 459.977 911.167Q457.164 910.637 454.362 910.049Q451.56 909.461 448.77 908.817Q445.981 908.172 443.205 907.471Q440.429 906.77 437.668 906.012Q434.907 905.255 432.163 904.441Q429.418 903.628 426.69 902.758Q423.962 901.889 421.253 900.964Q418.543 900.04 415.853 899.06C405.132 895.161 394.272 890.896 384.192 885.532C386.411 882.166 388.914 878.91 391.471 875.794C404.965 859.349 425.41 849.727 446.373 847.705Z"/>
	<path fill="white" d="M209.106 590.725C224.507 594.245 246.206 606.911 261.192 613.9C317.487 640.154 384.803 668.401 448.277 662.186C471.492 659.913 495.719 653.279 511.087 634.596Q512.87 636.734 514.832 638.707Q516.795 640.68 518.923 642.474Q521.051 644.268 523.328 645.869Q525.605 647.47 528.013 648.866C564.607 670.549 625.042 663.669 664.428 652.969C683.461 647.799 702.152 640.605 720.245 632.799C752.637 618.824 783.818 599.985 818.2 591.179C814.994 595.76 811.57 600.061 807.918 604.29Q804.542 608.205 801.024 611.992Q797.505 615.779 793.849 619.433Q790.192 623.087 786.403 626.603Q782.613 630.119 778.696 633.492Q774.779 636.865 770.739 640.091Q766.699 643.316 762.543 646.39Q758.387 649.463 754.119 652.38Q749.852 655.298 745.479 658.055C645.986 720.386 494.489 726.232 382.339 700.214C328.131 687.638 276.738 662.353 236.623 623.38C226.497 613.543 216.605 602.731 209.106 590.725Z"/>
	<path fill="white" d="M176.487 585.224C184.53 585.254 192.462 585.715 200.292 587.664C201.662 601.308 206.369 616.985 209.947 630.272C225.84 689.291 247.512 747.756 280.749 799.348C289.722 813.277 300.45 826.631 311.625 838.843C349.331 880.047 394.652 907.871 449.479 919.603Q452.89 920.363 456.319 921.039Q459.748 921.714 463.193 922.305Q466.637 922.896 470.095 923.401Q473.553 923.907 477.023 924.327Q480.493 924.747 483.971 925.081Q487.45 925.415 490.936 925.663Q494.422 925.911 497.913 926.073Q501.405 926.235 504.899 926.311Q508.393 926.387 511.887 926.376Q515.382 926.366 518.876 926.269Q522.369 926.172 525.859 925.989Q529.349 925.806 532.834 925.536Q536.318 925.267 539.795 924.912Q543.272 924.557 546.739 924.116Q550.206 923.675 553.661 923.149Q557.116 922.622 560.557 922.011Q563.998 921.399 567.422 920.703Q570.847 920.007 574.254 919.226Q577.66 918.445 581.047 917.581Q584.433 916.716 587.797 915.768Q591.161 914.821 594.5 913.79Q597.839 912.759 601.152 911.647Q604.465 910.534 607.75 909.34Q611.034 908.145 614.288 906.87Q617.542 905.595 620.764 904.24Q623.985 902.885 627.172 901.451Q630.359 900.017 633.51 898.505Q636.661 896.992 639.773 895.403Q642.885 893.813 645.958 892.147Q649.03 890.481 652.06 888.74Q655.09 886.998 658.076 885.183Q661.063 883.367 664.003 881.478Q671.077 876.806 677.815 871.661Q684.552 866.516 690.922 860.922Q697.292 855.328 703.265 849.311Q709.237 843.294 714.784 836.883C756.369 788.58 793.605 707.325 811.965 646.29C817.656 627.37 821.707 608.212 825.807 588.922C859.03 582.194 882.865 585.684 912.775 601.482C909.97 608.455 908.173 615.909 905.762 623.038Q898.708 644.12 889.392 664.305C884.483 675.039 878.749 685.402 872.856 695.62Q866.805 706.242 860.361 716.63Q853.916 727.018 847.089 737.158Q840.261 747.299 833.059 757.177Q825.858 767.055 818.292 776.657Q810.726 786.259 802.807 795.572Q794.888 804.885 786.627 813.896Q778.366 822.906 769.773 831.602Q761.181 840.297 752.27 848.666C731.487 868.395 709.446 887.083 685.657 903.127Q671.039 912.87 655.689 921.414Q640.339 929.957 624.355 937.246C608.62 944.413 592.28 951.132 575.546 955.594C497.496 976.406 428.907 956.908 360.659 917.363C344.882 908.221 330.251 897.526 315.837 886.399Q308.802 880.88 301.924 875.165Q295.047 869.451 288.333 863.546Q281.619 857.64 275.073 851.549Q268.527 845.457 262.155 839.184Q255.783 832.911 249.59 826.461Q243.396 820.012 237.386 813.391Q231.377 806.77 225.555 799.983Q219.734 793.196 214.105 786.248Q208.476 779.3 203.045 772.197Q197.614 765.094 192.384 757.841Q187.154 750.589 182.13 743.192Q177.106 735.795 172.292 728.26Q167.478 720.725 162.877 713.057Q158.276 705.39 153.893 697.597Q149.509 689.803 145.346 681.89Q141.183 673.976 137.244 665.949C127.588 645.984 118.275 624.588 112.558 603.138C132.467 592.153 153.74 586.074 176.487 585.224Z"/>
</svg>
